<svg width="17" height="16" viewBox="0 0 17 16" fill="none" xmlns="http://www.w3.org/2000/svg">
<path fill-rule="evenodd" clip-rule="evenodd" d="M4 6C3.72386 6 3.5 6.22386 3.5 6.5V14.5C3.5 14.7761 3.72386 15 4 15H13C13.2761 15 13.5 14.7761 13.5 14.5V6.5C13.5 6.22386 13.2761 6 13 6H11C10.7239 6 10.5 5.77614 10.5 5.5C10.5 5.22386 10.7239 5 11 5H13C13.8284 5 14.5 5.67157 14.5 6.5V14.5C14.5 15.3284 13.8284 16 13 16H4C3.17157 16 2.5 15.3284 2.5 14.5V6.5C2.5 5.67157 3.17157 5 4 5H6C6.27614 5 6.5 5.22386 6.5 5.5C6.5 5.77614 6.27614 6 6 6H4Z" fill="white"/>
<path fill-rule="evenodd" clip-rule="evenodd" d="M8.14645 11.8536C8.34171 12.0488 8.65829 12.0488 8.85355 11.8536L11.8536 8.85355C12.0488 8.65829 12.0488 8.34171 11.8536 8.14645C11.6583 7.95118 11.3417 7.95118 11.1464 8.14645L9 10.2929V1.5C9 1.22386 8.77614 1 8.5 1C8.22386 1 8 1.22386 8 1.5V10.2929L5.85355 8.14645C5.65829 7.95118 5.34171 7.95118 5.14645 8.14645C4.95118 8.34171 4.95118 8.65829 5.14645 8.85355L8.14645 11.8536Z" fill="white"/>
</svg>
