<svg width="328" height="769" viewBox="0 0 328 769" fill="none" xmlns="http://www.w3.org/2000/svg">
<g opacity="0.2">
<path d="M-896.637 211.599C-852.145 178.756 -804.771 149.318 -753.617 137.424C-702.567 125.627 -647.007 133.402 -607.553 169.223C-560.441 212.02 -540.371 289.381 -486.109 319.624C-450.981 339.182 -408.994 334.668 -369.209 332.977C-329.324 331.29 -286.008 334.428 -257.673 364.952C-206.882 419.687 -229.733 533.549 -174.322 582.144C-137.734 614.161 -84.8703 602.028 -38.2274 607.285C20.7723 613.982 75.036 652.63 105.53 709.747C136.024 766.864 142.087 841.326 121.744 907.046" stroke="#1C2226" stroke-miterlimit="10"/>
<path d="M-890.939 203.296C-846.664 170.946 -799.319 142.307 -748.49 131.102C-717.829 124.285 -685.517 124.531 -656.119 133.579C-636.916 139.463 -618.95 149.207 -603.432 163.066C-556.398 205.26 -535.369 280.953 -482.442 312.149C-463.623 323.223 -443.067 327.655 -421.605 329.117C-403.438 330.362 -384.697 329.526 -366.269 329.079C-340.429 328.395 -312.942 329.27 -289.027 337.723C-275.784 342.396 -263.623 349.331 -253.377 359.501C-233.171 379.43 -223.467 407.692 -215.929 437.778C-204.958 481.094 -198.23 528.363 -171.928 559.815C-169.147 563.216 -166.055 566.327 -162.76 569.346C-126.497 602.052 -75.9389 592.839 -32.0652 599.999C10.9091 607.128 50.6254 632.752 80.0835 671.121C88.5949 682.23 96.168 694.406 102.81 707.449C114.683 730.985 123.059 757.199 127.801 784.284C134.977 824.564 134.184 866.662 124.517 905.043" stroke="#23292E" stroke-miterlimit="10"/>
<path d="M-885.338 194.89C-841.184 163.135 -793.967 135.292 -743.355 124.58C-712.805 118.059 -680.8 118.494 -651.602 127.535C-632.499 133.416 -614.626 142.956 -599.104 156.715C-552.146 198.206 -530.36 272.325 -478.664 304.378C-460.059 315.845 -440.038 321.258 -418.805 323.513C-400.762 325.454 -381.939 325.121 -363.418 324.877C-337.392 324.6 -309.706 325.482 -285.47 333.347C-272.116 337.723 -259.837 344.162 -249.174 353.846C-228.425 372.594 -217.562 399.196 -208.871 427.822C-196.223 468.996 -187.24 514.744 -160.553 546.61C-157.672 550.014 -154.684 553.222 -151.389 556.241C-115.347 589.54 -67.2931 583.24 -26.1957 592.503C14.0094 601.534 50.5816 628.348 78.1054 667.648C86.1065 679.039 93.3691 691.504 99.7004 704.837C111.156 728.859 119.617 755.475 124.953 782.782C132.918 823.39 134.134 865.259 127.001 902.73" stroke="#2A2F37" stroke-miterlimit="10"/>
<path d="M-879.74 186.583C-835.804 155.321 -788.615 128.278 -738.224 118.158C-707.888 112.03 -676.187 112.554 -647.189 121.588C-628.285 127.462 -610.509 136.898 -594.98 150.457C-548 191.349 -525.358 263.897 -474.89 296.707C-456.602 308.663 -437.013 314.962 -415.905 317.912C-397.987 320.549 -379.177 320.616 -360.471 320.78C-334.26 320.909 -306.274 321.802 -281.816 329.074C-268.252 333.157 -255.759 339.204 -244.871 348.196C-223.48 365.765 -211.654 390.6 -201.714 417.87C-187.293 457.006 -176.047 501.032 -149.078 533.409C-146.197 536.813 -143.212 540.121 -139.921 543.24C-104.103 577.231 -58.4547 573.847 -20.2264 585.01C17.3094 595.948 50.5375 623.944 76.3234 664.283C83.8142 675.956 90.6629 688.807 96.7872 702.333C107.822 726.939 116.372 753.86 122.2 781.384C131.054 822.323 134.18 863.96 129.584 900.42" stroke="#31363F" stroke-miterlimit="10"/>
<path d="M-874.141 178.276C-830.326 147.611 -783.266 121.363 -733.193 111.732C-703.067 105.897 -671.573 106.614 -642.775 115.641C-623.971 121.511 -606.291 130.844 -590.851 144.1C-543.851 184.391 -520.452 255.366 -471.215 289.033C-453.142 301.381 -434.084 308.562 -413.207 312.404C-395.411 315.637 -376.523 316.307 -357.627 316.778C-331.23 317.314 -303.041 318.114 -278.165 324.9C-264.488 328.588 -251.784 334.342 -240.571 342.644C-218.538 359.036 -205.755 382.304 -194.556 407.917C-178.458 444.911 -164.957 487.417 -137.502 520.211C-134.625 523.715 -131.54 527.026 -128.349 530.142C-92.8525 564.722 -49.5088 564.258 -14.0533 577.424C20.7132 590.265 50.6974 619.446 74.6454 660.821C81.6224 672.876 88.0641 685.913 93.9779 699.731C104.595 724.823 113.228 752.247 119.652 779.892C129.394 821.163 134.33 862.564 132.368 898.117" stroke="#383C47" stroke-miterlimit="10"/>
<path d="M-868.54 169.87C-824.843 139.7 -777.911 114.248 -728.059 105.21C-698.144 99.6674 -666.96 100.674 -638.258 109.597C-619.554 115.464 -601.971 124.693 -586.624 137.746C-539.701 177.434 -515.347 246.841 -467.438 281.262C-449.582 294.103 -431.056 302.165 -410.304 306.704C-392.632 310.633 -373.662 311.806 -354.674 312.48C-328.19 313.419 -299.601 314.234 -274.505 320.427C-260.617 323.822 -247.795 329.08 -236.361 336.79C-213.686 352.004 -199.844 373.608 -187.492 397.761C-169.72 432.713 -153.86 473.602 -126.12 506.806C-123.143 510.314 -120.162 513.722 -116.974 516.937C-81.6986 552.11 -40.7634 554.663 -8.17704 569.728C23.9167 584.575 50.5604 614.839 72.774 657.153C79.2406 669.49 85.2684 682.912 90.9752 696.923C101.175 722.501 109.893 750.328 116.813 778.09C127.349 819.59 134.29 860.862 134.862 895.504" stroke="#3F4350" stroke-miterlimit="10"/>
<path d="M-862.942 161.563C-819.462 131.886 -772.562 107.334 -722.928 98.7882C-693.223 93.5382 -662.246 94.7373 -633.844 103.65C-615.34 109.51 -597.853 118.636 -582.499 131.488C-535.555 170.577 -510.445 238.41 -463.763 273.588C-446.125 286.921 -428.13 295.865 -407.503 301.1C-389.952 305.625 -371.003 307.398 -351.826 308.378C-325.157 309.725 -296.368 310.546 -270.954 316.251C-256.955 319.349 -243.92 324.214 -232.161 331.236C-208.944 345.268 -193.942 365.212 -180.438 387.905C-160.889 420.719 -142.874 460.083 -114.748 493.701C-111.771 497.209 -108.69 500.62 -105.505 503.935C-70.4548 539.801 -31.9245 545.27 -2.11097 562.338C27.2135 579.088 50.7095 610.641 70.9889 653.888C76.9452 666.507 82.6626 680.218 88.0589 694.518C97.8374 720.682 106.646 748.812 114.158 776.796C125.582 818.627 134.432 859.667 137.538 893.398" stroke="#464958" stroke-miterlimit="10"/>
<path d="M-857.24 153.16C-813.882 124.079 -767.11 100.322 -717.793 92.266C-688.303 87.4086 -657.629 88.6971 -629.327 97.6062C-610.923 103.462 -593.532 112.485 -578.268 125.034C-531.399 163.42 -505.439 229.882 -460.085 265.813C-442.664 279.639 -425.198 289.365 -404.802 295.492C-387.377 300.713 -368.342 302.889 -349.075 304.173C-322.221 305.926 -293.128 306.658 -267.497 311.871C-253.287 314.676 -240.034 319.049 -228.058 325.578C-204.199 338.432 -188.233 356.609 -173.481 377.946C-152.258 408.718 -131.984 446.46 -103.373 480.496C-100.399 484.104 -97.3178 487.515 -94.1333 490.83C-59.3041 527.288 -23.1823 535.774 3.76208 554.741C30.4138 573.498 50.5693 606.133 69.1107 650.419C74.5531 663.42 79.8637 677.317 85.046 692.01C94.407 718.659 103.197 747.288 111.306 775.393C123.519 817.553 134.375 858.464 140.018 891.184" stroke="#4D5060" stroke-miterlimit="10"/>
<path d="M-851.642 144.853C-808.401 116.268 -761.758 93.3079 -712.662 85.844C-683.282 81.2829 -652.915 82.7606 -624.913 91.6591C-606.606 97.4118 -589.415 106.427 -574.043 118.78C-527.153 156.566 -500.441 221.554 -456.31 258.142C-439.104 272.361 -422.073 283.072 -401.902 289.891C-384.597 295.708 -365.484 298.488 -346.028 300.079C-318.987 302.239 -289.695 302.978 -263.643 307.605C-249.323 310.114 -235.856 314.094 -223.555 319.934C-199.054 331.61 -182.028 348.124 -166.123 368C-143.124 396.634 -120.594 432.856 -91.6974 467.302C-88.7234 470.91 -85.646 474.421 -82.465 477.836C-47.9605 514.983 -14.0473 526.492 9.93159 547.256C34.0104 568.022 50.7255 601.736 67.5325 646.961C72.4646 660.244 77.3612 674.527 82.3365 689.412C91.2801 716.547 100.156 745.58 108.857 773.906C121.959 816.397 134.725 857.075 142.902 888.885" stroke="#545669" stroke-miterlimit="10"/>
<path d="M-846.044 136.546C-803.024 108.554 -756.309 86.3964 -707.531 79.4216C-678.362 75.1532 -648.202 76.8236 -620.4 85.715C-602.292 91.4607 -585.094 100.276 -569.819 112.525C-522.908 149.712 -495.439 213.126 -452.54 250.571C-435.551 265.282 -419.051 276.875 -399.009 284.49C-381.829 291.003 -362.733 294.282 -343.088 296.18C-315.862 298.747 -286.37 299.493 -259.996 303.531C-245.466 305.748 -231.781 309.235 -219.359 314.479C-194.215 324.977 -176.131 339.828 -159.073 358.244C-134.4 384.835 -109.611 419.436 -80.3291 454.296C-77.2552 457.908 -74.1814 461.519 -71.1004 464.93C-36.817 502.67 -5.31575 517.296 15.8974 539.862C37.2999 562.735 50.6745 597.532 65.6472 643.691C70.0689 657.257 74.6552 671.829 79.32 687.003C87.8461 714.623 96.8079 744.059 106.002 772.603C119.992 815.426 134.667 855.872 145.378 886.771" stroke="#5B5D71" stroke-miterlimit="10"/>
<path d="M-840.443 128.14C-797.541 100.644 -750.954 79.2821 -702.497 72.8963C-673.542 69.0205 -643.689 70.8802 -615.983 79.6681C-597.975 85.4102 -580.873 94.1221 -565.687 106.068C-518.855 142.652 -490.634 204.591 -448.858 242.696C-432.187 257.897 -416.119 270.375 -396.301 278.683C-379.246 285.892 -360.065 289.574 -340.33 291.775C-312.919 294.749 -283.127 295.506 -256.532 298.951C-241.891 300.872 -227.988 303.866 -215.245 308.521C-189.46 317.841 -170.415 331.025 -152.105 347.985C-125.655 372.438 -98.6114 405.518 -68.94 440.692C-65.8696 444.403 -62.7957 448.014 -59.6184 451.529C-25.5596 489.961 3.633 507.607 21.8771 532.07C40.6067 556.949 50.6409 592.828 63.8757 640.027C67.7836 653.974 71.9594 668.831 76.4173 684.199C84.5223 712.404 93.5699 742.244 103.36 770.909C118.139 814.06 134.823 854.277 148.068 884.265" stroke="#626379" stroke-miterlimit="10"/>
<path d="M-834.844 119.833C-792.064 92.933 -745.605 72.3674 -697.366 66.4741C-668.621 62.8911 -638.975 64.9436 -611.569 73.7208C-593.661 79.4594 -576.756 88.0643 -561.563 99.8104C-514.709 135.794 -485.738 196.36 -445.184 235.022C-428.73 250.715 -413.194 264.074 -393.504 273.178C-376.57 280.984 -357.31 285.269 -337.486 287.774C-309.989 291.151 -279.894 291.818 -252.982 294.774C-238.13 296.402 -224.113 299.001 -211.046 302.967C-184.618 311.109 -164.514 322.629 -145.051 338.129C-116.828 360.544 -87.6214 391.899 -57.5679 427.587C-54.4976 431.298 -51.3237 434.913 -48.2498 438.524C-14.4123 477.548 12.3648 498.411 27.8468 524.576C43.7965 551.659 50.5937 588.523 61.9977 636.558C65.3953 650.787 69.1607 665.93 73.4081 681.591C81.0957 710.281 90.229 740.524 100.511 769.407C116.179 812.89 134.773 852.874 150.552 881.952" stroke="#696A82" stroke-miterlimit="10"/>
<path d="M-829.243 111.426C-786.68 85.019 -740.249 65.2528 -692.231 59.9521C-663.697 56.6618 -634.358 58.9035 -607.052 67.6772C-589.244 73.4123 -572.435 81.9136 -557.334 93.4563C-510.556 128.737 -480.736 187.932 -441.409 227.351C-425.173 243.537 -410.168 257.778 -390.604 267.578C-373.794 276.079 -354.552 280.864 -334.436 283.579C-306.752 287.363 -276.357 288.041 -249.124 290.409C-234.062 291.743 -219.828 293.849 -206.539 297.223C-179.369 304.191 -158.305 314.044 -137.69 328.083C-107.69 348.36 -76.228 378.194 -45.8889 414.293C-42.7187 418.007 -39.6483 421.719 -36.578 425.43C-3.06148 465.043 21.3 489.122 34.0199 516.991C47.2933 546.18 50.7535 584.026 60.4195 633.1C63.3033 647.711 66.7582 663.143 70.6987 678.993C77.9688 708.169 87.1879 738.815 98.0628 767.919C114.62 811.734 135.123 851.486 153.436 879.653" stroke="#70708A" stroke-miterlimit="10"/>
<path d="M-823.545 103.123C-781.103 77.3116 -734.801 58.3414 -687.101 53.5298C-658.78 50.6321 -629.645 52.9667 -602.638 61.7298C-585.03 67.4577 -568.318 75.8556 -553.207 87.0984C-506.407 121.78 -475.934 179.496 -437.731 219.576C-421.716 236.355 -407.236 251.277 -387.903 261.97C-371.219 271.167 -351.894 276.456 -331.689 279.474C-303.82 283.665 -273.225 284.35 -245.67 286.128C-230.498 287.167 -216.049 288.88 -202.54 291.661C-174.724 297.351 -152.604 305.64 -130.836 318.22C-99.1628 336.455 -65.442 364.668 -34.6174 401.184C-31.4506 404.999 -28.3803 408.71 -25.3099 412.421C7.98184 452.727 29.9314 479.922 39.7891 509.49C50.2827 540.882 50.5059 579.714 58.4375 629.727C60.8109 644.621 63.8556 660.338 67.5856 676.481C74.4346 706.242 83.7394 737.292 95.114 766.414C112.46 810.556 134.972 850.079 155.823 877.236" stroke="#777792" stroke-miterlimit="10"/>
<path d="M-817.947 94.8164C-775.623 69.5012 -729.453 51.4269 -681.97 47.1078C-653.76 44.5065 -624.935 47.1302 -598.125 55.7862C-580.617 61.5106 -564 69.805 -548.883 80.848C-502.161 114.926 -470.94 171.269 -433.857 211.909C-418.16 229.176 -404.111 244.984 -384.903 256.373C-368.34 266.166 -348.933 271.958 -328.642 275.38C-300.587 279.977 -269.689 280.573 -241.917 281.859C-226.534 282.605 -211.868 283.825 -198.137 286.014C-169.679 290.526 -146.499 297.152 -123.575 308.171C-90.1252 324.268 -54.2489 350.956 -23.0388 387.886C-19.872 391.701 -16.7053 395.516 -13.7384 399.323C19.3322 440.222 38.7662 470.63 45.9583 502.004C53.6755 535.499 50.6617 575.317 56.7591 626.266C58.6222 641.441 61.2528 657.545 64.7758 673.88C71.2074 704.127 80.5981 735.58 92.5652 764.922C110.8 809.397 135.222 848.687 158.606 874.933" stroke="#7E7E9B" stroke-miterlimit="10"/>
<path d="M-812.345 86.4099C-770.242 61.6873 -724.097 44.3125 -676.835 40.586C-648.836 38.2773 -620.317 41.0903 -593.611 49.8427C-576.203 55.5636 -559.683 63.7545 -544.658 74.594C-497.915 108.072 -465.944 163.041 -430.086 204.338C-414.606 222.098 -400.989 238.791 -382.006 250.872C-365.567 261.362 -346.178 267.653 -325.694 271.282C-297.454 276.286 -266.356 276.889 -238.263 277.586C-222.765 277.935 -207.885 278.764 -193.833 280.363C-164.733 283.697 -140.594 288.656 -116.418 298.219C-81.1904 312.177 -43.0588 337.345 -11.563 374.685C-8.29635 378.503 -5.23306 382.414 -2.16626 386.225C30.5797 427.813 47.6017 461.337 52.0317 494.415C56.8691 530.109 50.7183 570.917 55.0812 622.804C56.4304 638.362 58.6542 654.651 61.9632 671.379C67.9737 702.211 77.4537 733.967 89.9134 763.528C109.037 808.334 135.368 847.392 161.386 872.731" stroke="#8584A3" stroke-miterlimit="10"/>
<path d="M-806.747 78.1031C-764.762 53.8766 -718.748 37.3978 -671.704 34.1638C-643.915 32.1479 -615.604 35.1536 -589.197 43.8954C-571.989 49.6092 -555.566 57.6966 -540.53 68.2364C-493.866 101.112 -461.146 154.706 -426.408 196.564C-411.246 214.813 -398.061 232.391 -379.305 245.264C-362.992 256.45 -343.52 263.244 -322.947 267.176C-294.521 272.588 -263.123 273.201 -234.712 273.409C-219.005 273.466 -204.007 273.798 -189.634 274.808C-159.888 276.864 -134.692 280.26 -109.364 288.363C-72.3632 300.282 -32.0727 323.826 -0.0914058 361.583C3.17526 365.402 6.3385 369.316 9.30181 373.224C41.8267 415.404 56.2368 452.038 58.101 486.926C60.0621 524.719 50.6742 566.512 53.2992 619.439C54.1381 635.278 55.948 651.953 59.05 668.874C64.6431 700.192 74.1053 732.448 87.1611 762.129C107.073 807.264 135.414 846.093 163.966 870.521" stroke="#8C8BAC" stroke-miterlimit="10"/>
<path d="M-801.149 69.7961C-759.285 46.1657 -713.396 30.3828 -666.673 27.7379C-639.098 26.1146 -611.09 29.2096 -584.784 37.9479C-567.672 43.5582 -551.345 51.5421 -536.405 61.9784C-489.717 94.1541 -456.351 146.47 -422.737 188.989C-407.796 207.83 -395.139 226.191 -376.509 239.76C-360.32 251.641 -340.763 258.839 -320.003 263.178C-291.492 268.993 -259.794 269.617 -231.062 269.235C-215.244 268.996 -199.943 269.239 -185.434 269.253C-155.021 269.432 -128.791 271.863 -102.31 278.507C-63.6324 288.284 -20.9866 310.31 11.2804 348.478C14.5435 352.396 17.7067 356.311 20.6664 360.318C52.9666 403.191 64.8647 442.938 63.9667 479.529C63.0517 519.421 50.5233 562.304 51.4174 616.07C51.6461 632.188 53.1455 649.152 56.037 666.365C61.2126 698.169 70.7605 730.828 84.4088 760.73C105.21 806.196 135.46 844.793 166.546 868.31" stroke="#9391B4" stroke-miterlimit="10"/>
<path d="M-795.547 61.3894C-753.901 38.2515 -708.044 23.3682 -661.539 21.2158C-634.174 19.8852 -606.377 23.273 -580.367 31.9007C-563.355 37.5074 -547.124 45.3879 -532.274 55.5208C-485.564 87.0968 -451.649 138.031 -419.056 181.114C-404.432 200.445 -392.207 219.69 -373.705 234.056C-357.637 246.533 -338.101 254.331 -317.149 258.876C-288.452 265.098 -256.45 265.633 -227.501 264.759C-211.472 264.227 -196.043 263.674 -181.228 263.499C-150.194 263.099 -122.879 263.167 -95.249 268.451C-54.7944 276.09 -9.99316 296.591 22.6593 335.173C26.0224 339.095 29.0821 343.106 32.0419 347.113C64.1209 390.578 73.4072 433.434 69.8399 471.932C66.0486 513.924 50.3831 557.796 49.5393 612.601C49.2541 629.101 50.4431 646.354 53.0277 663.757C57.7822 696.146 67.4195 729.108 81.5604 759.228C103.254 804.926 135.31 843.387 169.03 865.997" stroke="#9A98BC" stroke-miterlimit="10"/>
<path d="M-789.849 53.0865C-748.324 30.5447 -702.592 16.3573 -656.308 14.7975C-629.154 13.7596 -601.564 17.3402 -575.753 25.9608C-558.941 31.5604 -542.807 39.3374 -527.949 49.2704C-481.318 80.2433 -446.654 129.804 -415.181 173.447C-400.879 193.367 -389.082 213.398 -370.804 228.455C-354.861 241.629 -335.243 249.93 -314.202 254.779C-285.319 261.407 -253.118 261.949 -223.847 260.486C-207.708 259.658 -191.961 258.615 -176.924 257.848C-145.245 256.17 -116.874 254.675 -88.0915 258.498C-45.8636 264.099 1.10016 282.876 34.2346 321.976C37.5977 325.897 40.7538 330.012 43.71 334.119C75.468 378.173 82.2423 424.142 76.1092 464.45C69.3417 508.538 50.5356 553.499 47.9575 609.243C47.1619 626.025 47.9405 643.564 50.3145 661.259C54.6516 694.134 64.3712 727.599 79.1082 757.841C101.59 803.867 135.656 842.099 171.91 863.798" stroke="#A19EC5" stroke-miterlimit="10"/>
<path d="M-784.248 44.6796C-742.84 22.6339 -697.24 9.34242 -651.273 8.27162C-624.234 7.62998 -597.046 11.2963 -571.336 19.9133C-554.624 25.5094 -538.586 33.1829 -523.722 42.9161C-477.069 73.2894 -441.855 121.468 -411.407 165.776C-397.422 186.184 -386.057 207.101 -367.907 222.954C-352.089 236.824 -332.389 245.628 -311.255 250.68C-282.182 257.615 -249.685 258.268 -220.194 256.213C-203.844 255.092 -187.979 253.553 -172.621 252.197C-140.3 249.341 -110.969 246.179 -80.9343 248.546C-37.0293 252.005 12.2897 269.264 45.7098 308.774C49.0694 312.796 52.2255 316.91 55.1817 321.017C86.7149 365.764 90.8808 414.742 82.082 456.857C72.4418 502.944 50.4952 548.995 46.1826 605.677C44.8732 622.842 45.245 640.566 47.4085 658.554C51.3281 691.914 61.1334 725.783 76.363 756.242C99.7339 802.6 135.709 840.6 174.497 861.388" stroke="#A8A5CD" stroke-miterlimit="10"/>
<path d="M-778.65 36.3732C-737.46 14.8201 -691.892 2.42809 -646.143 1.84988C-619.313 1.50097 -592.333 5.36003 -566.922 13.9664C-550.31 19.559 -534.469 27.1255 -519.594 36.5588C-473.017 66.229 -437.057 113.134 -407.729 158.002C-394.065 178.999 -383.128 200.701 -365.103 217.25C-349.41 231.816 -329.724 241.02 -308.304 246.483C-279.046 253.825 -246.346 254.385 -216.437 251.843C-199.876 250.43 -183.894 248.395 -168.315 246.446C-135.348 242.313 -104.957 237.487 -73.7736 238.493C-28.0881 239.714 23.3828 255.549 57.1885 295.473C60.6479 299.498 63.7041 303.609 66.6532 307.916C97.9653 353.255 99.5194 405.343 88.1548 449.268C75.6383 497.454 50.551 544.594 44.4041 602.212C42.5844 619.659 42.5422 637.769 44.4988 655.95C47.9974 689.895 57.892 724.067 73.7141 754.748C97.9739 801.437 135.859 839.204 177.18 859.082" stroke="#AFABD5" stroke-miterlimit="10"/>
<path d="M-773.052 28.0665C-731.983 7.10951 -686.539 -4.58653 -641.011 -4.57221C-614.392 -4.62841 -587.723 -0.480152 -562.408 8.02278C-545.996 13.6082 -530.151 21.0748 -515.369 30.3047C-468.77 59.3752 -432.262 104.898 -403.955 150.331C-390.508 171.821 -380.102 194.404 -362.306 211.746C-346.737 227.008 -326.969 236.715 -305.46 242.481C-276.016 250.23 -243.016 250.8 -212.886 247.667C-196.215 245.957 -179.915 243.433 -164.115 240.892C-130.502 235.48 -99.0556 229.091 -66.7192 228.637C-19.2568 227.72 34.4695 242.034 68.6607 282.371C72.1202 286.397 75.2727 290.611 78.1219 294.915C109.209 340.946 108.255 396.047 94.1211 441.875C78.632 492.057 50.4042 540.286 42.6193 598.947C40.2892 616.676 39.9366 635.075 41.5827 653.545C44.6638 687.976 54.6406 722.651 70.9624 753.349C96.011 800.367 135.905 837.905 179.76 856.872" stroke="#B6B2DE" stroke-miterlimit="10"/>
<path d="M-767.45 19.6596C-726.599 -0.804746 -681.188 -11.6014 -635.977 -11.098C-609.569 -10.8615 -583.106 -6.52042 -558.091 1.97188C-541.779 7.55378 -526.03 14.9168 -511.341 23.9433C-464.821 52.4107 -427.663 96.556 -400.38 142.652C-387.355 164.728 -377.277 188.1 -359.606 206.138C-344.158 221.996 -324.412 232.302 -302.71 238.276C-273.18 246.428 -239.88 247.009 -209.429 243.286C-192.547 241.284 -176.13 238.264 -160.012 235.233C-125.753 228.544 -93.3508 220.588 -59.7619 218.678C-10.6261 215.718 45.359 228.411 79.9357 269.163C83.3916 273.288 86.5443 277.502 89.4899 281.91C120.256 328.53 116.79 386.744 99.9903 434.378C81.6249 486.659 50.1601 535.875 40.7408 595.478C37.7969 613.585 37.1339 632.273 38.5695 651.036C41.2331 685.953 51.2956 721.031 68.2099 751.951C94.1473 799.3 135.951 836.606 182.343 854.562" stroke="#BDB8E6" stroke-miterlimit="10"/>
<path d="M-761.852 11.3526C-721.122 -8.51568 -675.835 -18.6163 -630.846 -17.5204C-604.652 -16.8912 -578.392 -12.4573 -553.578 -3.9721C-537.365 1.60626 -521.809 8.76233 -507.113 17.589C-460.572 45.4567 -422.868 88.3206 -396.602 134.881C-383.894 157.446 -374.248 181.703 -356.802 200.434C-341.479 216.987 -321.646 227.697 -299.859 234.074C-270.143 242.633 -236.54 243.125 -205.871 238.909C-188.879 236.611 -172.247 233.198 -155.805 229.479C-120.904 221.611 -87.4422 211.992 -52.6973 208.522C-1.78452 203.424 56.356 214.592 91.3184 255.758C94.7743 259.883 98.0232 264.201 100.869 268.604C131.41 315.917 125.339 377.04 105.971 426.585C84.7325 480.866 50.1236 531.27 38.8699 591.809C35.4157 610.198 34.3422 629.172 35.5673 648.228C37.8099 683.73 47.9618 719.112 65.3687 750.248C92.1949 797.93 135.908 835.003 184.834 852.048" stroke="#C4BFEE" stroke-miterlimit="10"/>
<path d="M-756.151 2.94976C-715.538 -16.4224 -670.384 -25.6271 -625.612 -24.0386C-599.628 -23.1167 -573.676 -18.4936 -548.961 -10.0119C-532.845 -4.53706 -517.389 2.61547 -502.785 11.2387C-456.323 38.5033 -418.07 79.9857 -392.728 127.214C-380.341 150.368 -371.12 175.31 -353.805 194.937C-338.607 212.186 -318.692 223.4 -296.715 230.083C-266.815 239.049 -233.011 239.548 -201.925 234.847C-184.722 232.255 -167.973 228.347 -151.31 224.035C-115.859 214.786 -81.2447 203.707 -45.3473 198.776C7.33884 191.64 67.7383 201.188 103.086 242.767C106.642 246.896 109.788 251.31 112.633 255.714C142.954 303.619 134.271 367.851 112.236 419.202C88.0289 475.379 50.2757 526.973 37.3841 588.555C33.4196 607.226 32.0322 626.589 32.9504 645.834C34.7755 681.821 45.0131 717.606 63.0125 748.964C90.6276 796.974 136.35 833.818 187.81 849.953" stroke="#CBC5F7" stroke-miterlimit="10"/>
<path d="M-750.552 -5.35722C-686.661 -35.0104 -611.174 -38.9363 -544.547 -15.9594C-477.92 7.01745 -421.048 56.7653 -389.153 119.536C-377.088 143.278 -368.294 169.006 -351.104 189.329C-315.578 231.515 -252.927 239.641 -198.467 230.467C-144.107 221.288 -92.849 197.991 -38.3859 188.717C15.9772 179.438 78.6321 187.465 114.366 229.458C155.954 278.464 145.089 353.426 118.109 411.606C91.026 469.882 50.1359 522.465 35.4099 584.982C22.5666 639.561 31.5641 699.018 60.0679 747.359C88.5718 795.7 136.204 832.312 190.198 847.536" stroke="#D2CCFF" stroke-miterlimit="10"/>
<path d="M-733.728 -8.56257C-670.268 -37.3305 -595.71 -40.4888 -530.096 -17.1477C-464.482 6.19353 -408.296 55.5168 -377.39 117.952C-365.346 142.294 -357.291 169.097 -340.725 190.097C-307.115 232.716 -246.602 241.867 -193.912 234.631C-141.322 227.391 -91.1484 206.457 -37.3345 198.56C17.186 190.488 80.1795 197.426 116.951 238.356C159.489 285.994 151.14 360.545 125.042 419.256C98.944 477.968 57.0438 530.816 40.9755 591.684C27.1002 644.325 35.1799 701.448 61.5384 748.212C87.8968 794.976 132.745 831.088 184.722 846.741" stroke="#CDC9FE" stroke-miterlimit="10"/>
<path d="M-716.808 -11.6642C-653.883 -39.4505 -580.148 -41.9377 -515.445 -18.3286C-450.741 5.28049 -395.347 54.3755 -365.53 116.472C-353.511 141.514 -346.287 169.187 -330.346 190.866C-298.749 233.813 -240.277 244.093 -189.457 238.792C-138.54 233.594 -89.4475 214.923 -36.2794 208.304C18.3949 201.538 81.8343 207.191 119.641 247.157C163.231 293.332 157.192 367.664 132.182 426.715C107.173 485.765 64.2589 538.977 46.7518 598.093C31.7482 648.693 39.0029 703.685 63.2159 748.872C87.5289 794.062 129.493 829.673 179.454 845.754" stroke="#C7C6FE" stroke-miterlimit="10"/>
<path d="M-699.984 -14.8701C-637.494 -41.6713 -564.687 -43.3908 -500.89 -19.6137C-437.093 4.1633 -382.595 53.1265 -353.767 114.887C-341.772 140.629 -335.38 169.174 -319.967 191.634C-290.283 234.914 -234.048 246.215 -184.902 242.956C-135.755 239.696 -87.7432 223.288 -35.1244 218.051C19.6037 212.588 83.5889 216.959 122.33 255.957C166.97 300.768 163.243 374.783 139.322 434.172C115.401 493.561 71.3776 547.034 52.4246 604.598C36.4961 653.064 42.626 705.914 64.79 749.628C86.9575 793.241 126.141 828.252 174.082 844.863" stroke="#C2C3FD" stroke-miterlimit="10"/>
<path d="M-683.059 -18.072C-621.101 -43.9914 -549.022 -44.9362 -486.239 -20.7949C-423.456 3.34642 -369.75 52.0813 -341.907 113.407C-329.937 139.848 -324.373 169.164 -309.491 192.506C-281.716 236.018 -227.627 248.544 -180.253 247.323C-132.88 246.102 -85.9493 231.957 -33.8763 228.001C21.1091 223.748 85.3333 227.028 125.213 264.965C170.901 308.413 169.491 382.009 146.655 441.837C123.72 501.661 78.7929 555.202 58.394 611.214C41.4371 657.642 46.6421 708.358 66.6606 750.495C86.6791 792.631 123.082 827.043 169.003 844.182" stroke="#BDC0FD" stroke-miterlimit="10"/>
<path d="M-666.238 -21.1776C-604.716 -46.1118 -533.561 -46.389 -471.788 -21.9833C-410.014 2.42236 -357.101 50.929 -330.243 111.82C-318.298 138.96 -313.465 169.151 -299.208 193.171C-273.343 236.916 -221.398 250.666 -175.794 251.384C-130.191 252.101 -84.2482 240.423 -32.8173 237.645C22.3218 234.698 86.8883 236.789 127.807 273.663C174.444 315.743 175.546 389.028 153.599 449.188C131.752 509.351 85.8154 563.156 63.8707 617.612C45.9854 662.006 50.1691 710.485 68.0422 751.044C85.9153 791.603 119.534 825.516 163.339 843.081" stroke="#B8BDFC" stroke-miterlimit="10"/>
<path d="M-649.314 -24.3792C-588.327 -48.3318 -517.996 -47.9378 -457.137 -23.1643C-396.277 1.60924 -344.356 49.8806 -318.383 110.34C-306.463 138.18 -302.458 169.141 -288.832 194.04C-264.773 237.921 -215.173 252.889 -171.243 255.648C-127.413 258.404 -82.5509 248.989 -31.6658 247.492C23.6235 245.952 88.5395 246.654 130.593 282.567C178.279 323.284 181.694 396.251 160.832 456.849C139.97 517.448 93.2303 571.324 69.7398 624.225C51.0295 666.488 53.985 712.922 69.8127 751.907C85.6403 790.893 116.378 824.204 158.163 842.297" stroke="#B2BAFC" stroke-miterlimit="10"/>
<path d="M-632.49 -27.5846C-571.937 -50.552 -502.531 -49.4903 -442.582 -24.4489C-382.632 0.592524 -331.707 48.7285 -306.619 108.756C-294.724 137.295 -291.447 169.032 -278.449 194.709C-256.192 238.625 -208.844 255.015 -166.784 259.709C-124.624 264.407 -80.8498 257.454 -30.6105 257.236C24.8327 257.001 90.1909 256.519 133.182 291.365C181.818 330.714 187.649 403.267 167.872 464.304C148.095 525.341 100.456 579.185 75.413 630.73C55.8777 670.862 57.7083 715.155 71.387 752.664C85.0692 790.072 112.923 822.881 152.792 841.406" stroke="#ADB6FB" stroke-miterlimit="10"/>
<path d="M-615.57 -30.6869C-555.549 -52.7726 -486.971 -50.9398 -428.031 -25.634C-369.091 -0.328256 -319.062 47.6759 -294.86 107.271C-282.989 136.511 -280.536 168.918 -268.074 195.577C-247.52 239.533 -202.523 257.34 -162.232 263.973C-121.846 270.709 -78.9571 263.325 -29.4592 267.082C26.0278 271.252 91.8383 266.483 135.968 300.269C185.553 338.251 193.796 410.489 175.008 471.861C156.22 533.234 107.875 587.253 81.0856 637.235C60.7218 675.337 61.4276 717.488 72.9644 753.32C84.4976 789.251 109.575 821.361 147.423 840.415" stroke="#A8B3FB" stroke-miterlimit="10"/>
<path d="M-598.745 -33.8923C-539.16 -54.9928 -471.406 -52.4888 -413.48 -26.8188C-355.45 -1.24509 -306.416 46.6236 -283.096 105.688C-271.25 135.627 -269.526 168.809 -257.691 196.245C-238.839 240.242 -196.29 259.362 -157.677 268.137C-119.06 276.812 -77.0527 271.698 -28.304 276.83C27.3262 282.606 93.4897 276.348 138.658 309.07C189.291 345.688 199.848 417.608 182.149 479.319C164.449 541.03 115.3 595.122 86.8621 643.644C65.7732 679.619 65.1544 719.622 74.6421 753.98C84.1298 788.338 106.323 819.945 142.155 839.427" stroke="#A3B0FA" stroke-miterlimit="10"/>
<path d="M-581.821 -37.094C-522.67 -57.2093 -455.841 -54.0377 -398.825 -28.0998C-341.809 -2.16179 -293.767 45.4716 -271.232 104.108C-259.511 134.742 -258.411 168.603 -247.311 197.014C-230.159 240.95 -189.965 261.588 -153.122 272.301C-116.278 283.014 -75.4615 283.262 -27.1487 286.577C28.9486 290.468 95.1447 286.113 141.448 317.875C193.03 353.126 206.099 424.734 189.389 486.781C172.678 548.827 122.926 602.997 92.6351 650.153C70.9212 684.004 68.9742 721.959 76.3165 754.74C83.6587 787.521 103.068 818.629 136.883 838.54" stroke="#9DADFA" stroke-miterlimit="10"/>
<path d="M-565 -40.1997C-506.385 -59.3334 -440.383 -55.3906 -384.274 -29.2847C-328.164 -3.17878 -281.122 44.4192 -259.472 102.623C-247.776 133.958 -247.3 168.496 -236.936 197.882C-221.386 241.861 -183.744 263.91 -148.57 276.565C-113.497 289.217 -73.7679 291.927 -26.0972 296.42C30.1503 301.718 96.6923 296.074 144.037 326.672C196.565 360.656 212.054 431.75 196.429 494.235C180.803 556.72 130.352 610.865 98.3114 656.558C75.9688 688.386 72.7007 724.092 77.8975 755.296C83.0944 786.5 99.7231 817.009 131.518 837.449" stroke="#98AAF9" stroke-miterlimit="10"/>
<path d="M-548.076 -43.4017C-489.892 -61.6501 -424.818 -56.9398 -369.722 -30.4695C-314.626 -3.99933 -268.58 43.4632 -247.712 101.139C-236.141 133.17 -236.289 168.387 -226.556 198.651C-212.502 242.477 -177.415 266.036 -144.115 280.726C-110.815 295.416 -72.0739 300.593 -25.0454 306.264C31.4487 313.071 98.2403 306.035 146.624 335.569C200.101 368.186 218.002 438.965 203.362 501.885C188.722 564.806 137.87 618.937 103.778 663.256C81.0097 692.967 76.1136 726.615 79.265 756.245C82.4163 785.875 96.161 815.882 125.94 836.751" stroke="#93A7F9" stroke-miterlimit="10"/>
<path d="M-531.256 -46.5069C-473.607 -63.7737 -409.358 -58.3922 -355.172 -31.6541C-300.986 -4.91594 -256.035 42.4077 -236.053 99.6522C-224.509 132.482 -225.279 168.277 -216.281 199.516C-203.725 243.289 -171.194 268.358 -139.663 284.986C-108.033 301.618 -70.3841 309.358 -23.9942 316.107C32.6502 324.321 99.6877 315.993 149.309 344.47C203.735 375.72 224.05 446.184 210.498 509.443C196.947 572.703 145.592 626.916 109.55 669.765C86.2534 697.456 79.9362 728.852 80.9386 757.005C81.941 785.159 92.9052 814.566 120.667 835.864" stroke="#8EA4F9" stroke-miterlimit="10"/>
<path d="M-514.331 -49.7092C-457.118 -65.9908 -393.693 -59.9381 -340.517 -32.9356C-287.341 -5.93316 -243.39 41.355 -224.185 97.9715C-212.767 131.497 -213.961 167.978 -205.894 200.084C-194.838 243.804 -164.961 270.38 -135.104 289.05C-105.248 307.721 -68.5865 317.927 -22.8353 325.754C34.0557 335.477 101.343 325.757 152.003 353.171C207.374 383.153 230.208 453.106 217.642 516.801C205.076 580.495 153.418 634.798 115.327 676.173C91.7012 701.852 83.7597 731.089 82.6202 757.565C81.4771 784.141 89.6608 812.949 115.4 834.876" stroke="#88A1F8" stroke-miterlimit="10"/>
<path d="M-497.507 -52.9145C-440.825 -68.3143 -378.228 -61.4905 -325.966 -34.1202C-273.703 -6.74987 -230.944 40.2958 -212.425 96.4878C-201.132 130.71 -202.847 167.772 -195.519 200.953C-185.858 244.523 -158.636 272.606 -130.553 293.315C-102.469 314.023 -66.7964 326.696 -21.6837 335.601C35.4539 346.834 102.987 335.822 154.789 362.075C211.109 390.69 236.356 460.329 224.778 524.359C213.301 588.392 161.336 642.884 120.999 682.679C96.9418 706.441 87.4827 733.322 84.1943 758.321C80.9058 783.321 86.3054 811.63 110.028 833.985" stroke="#839EF8" stroke-miterlimit="10"/>
<path d="M-480.586 -56.0163C-424.34 -70.431 -362.667 -62.9395 -311.414 -35.3049C-260.162 -7.6702 -218.403 39.34 -200.665 95.004C-189.5 130.022 -191.636 167.67 -185.143 201.822C-176.881 245.342 -152.315 274.932 -126.001 297.579C-99.6875 320.226 -65.0096 335.565 -20.5321 345.449C36.7487 358.288 104.635 345.787 157.475 370.976C214.741 398.324 242.404 467.548 231.915 531.917C221.423 596.385 169.251 651.07 126.769 689.288C102.479 711.14 91.2024 735.656 85.8649 759.181C80.5309 782.607 83.0501 810.314 104.652 833.194" stroke="#7E9BF7" stroke-miterlimit="10"/>
<path d="M-463.762 -59.2219C-408.051 -72.6549 -347.202 -64.4922 -296.86 -36.5897C-246.517 -8.68709 -205.954 38.1807 -188.902 93.42C-177.861 129.134 -180.422 167.467 -174.76 202.49C-167.897 245.961 -146.086 277.054 -121.542 301.639C-97.0022 326.325 -63.4123 344.127 -19.4734 355.092C37.954 369.437 106.189 355.548 160.168 379.677C218.383 405.658 248.462 474.468 239.055 539.375C229.648 604.282 177.265 659.259 132.445 695.693C107.823 715.632 94.9254 737.889 87.446 759.738C79.9666 781.586 79.7017 808.794 99.2876 832.103" stroke="#7898F7" stroke-miterlimit="10"/>
<path d="M-446.938 -62.4273C-391.662 -74.8751 -331.737 -66.0448 -282.309 -37.7744C-232.88 -9.50401 -193.412 37.2248 -177.138 91.8362C-166.226 128.346 -169.104 167.168 -164.481 203.255C-158.914 246.58 -139.857 279.176 -117.087 305.8C-94.3167 332.424 -61.722 352.893 -18.4218 364.936C39.2488 380.891 107.737 365.509 162.754 388.575C221.915 413.288 254.51 481.687 246.091 546.929C237.673 612.172 185.273 667.649 138.118 702.198C113.36 720.332 98.6486 740.123 89.0202 760.494C79.4918 780.869 76.3464 807.474 93.9157 831.212" stroke="#7395F6" stroke-miterlimit="10"/>
<path d="M-430.017 -65.5293C-375.173 -77.092 -316.18 -67.3941 -267.657 -38.9557C-219.235 -10.5209 -180.87 36.2688 -165.278 90.3557C-154.49 127.562 -157.693 167.073 -154.001 204.027C-149.733 247.306 -133.532 281.401 -112.435 310.068C-91.3384 338.734 -59.8353 361.765 -17.1701 374.786C40.6435 392.347 109.382 375.574 165.64 397.482C225.747 420.928 260.758 488.912 253.328 554.49C245.998 620.072 193.577 676.148 143.988 708.81C118.989 725.234 102.465 742.559 90.7908 761.357C79.117 780.155 73.1912 806.161 88.7405 830.428" stroke="#6E92F6" stroke-miterlimit="10"/>
<path d="M-413.193 -68.7351C-358.784 -79.3125 -300.615 -68.9435 -253.103 -40.2408C-205.594 -11.4381 -168.425 35.2092 -153.515 88.7715C-142.955 126.77 -146.279 166.877 -143.622 204.795C-140.553 248.031 -127.207 283.627 -107.88 314.231C-88.5531 344.836 -58.1451 370.53 -16.115 384.529C41.8383 403.796 110.933 385.435 168.23 406.279C229.282 428.458 266.709 496.028 260.368 561.944C254.027 627.861 201.677 684.741 149.564 715.212C124.326 729.926 106.091 744.689 92.2721 761.91C78.4528 779.131 69.7429 804.638 83.2758 829.333" stroke="#698EF5" stroke-miterlimit="10"/>
<path d="M-396.269 -71.9366C-342.395 -81.5324 -285.05 -70.4922 -238.552 -41.4252C-192.053 -12.3582 -155.979 34.1502 -141.755 87.288C-131.32 125.982 -134.969 166.779 -133.243 205.564C-131.373 248.758 -120.879 285.753 -103.325 318.396C-85.7714 351.039 -56.4584 379.396 -14.9599 394.277C43.1365 415.15 112.58 395.4 171.019 415.084C233.017 435.996 272.864 503.051 267.608 569.406C262.352 635.762 210.07 693.544 155.437 721.725C129.956 734.829 110.011 747.03 94.0461 762.674C78.1813 778.321 66.5875 803.326 78.1039 828.45" stroke="#638BF5" stroke-miterlimit="10"/>
<path d="M-379.448 -75.0425C-326.109 -83.6567 -269.589 -71.9453 -224.001 -42.6104C-178.412 -13.2754 -143.638 33.1868 -129.991 85.7037C-119.785 125.19 -123.455 166.586 -122.964 206.329C-122.293 249.48 -114.654 287.975 -98.8698 322.556C-83.086 357.138 -54.7682 388.161 -13.9049 404.02C44.2312 426.596 114.132 405.261 173.609 423.881C236.552 443.525 278.815 510.166 274.548 576.856C270.277 643.647 218.06 702.433 160.913 728.122C135.186 739.717 113.438 749.152 95.4239 763.322C77.4102 777.493 62.9393 801.795 72.5356 827.451" stroke="#5E88F4" stroke-miterlimit="10"/>
<path d="M-362.524 -78.2444C-309.617 -85.9733 -254.024 -73.4943 -209.446 -43.895C-164.867 -14.2958 -131.192 32.1275 -118.228 84.1199C-108.246 124.299 -112.041 166.391 -112.584 207.097C-113.117 250.306 -108.428 290.197 -94.4145 326.717C-80.4041 363.337 -53.1814 397.023 -12.8532 413.864C45.4225 438.145 115.576 415.318 176.195 432.779C240.084 451.155 284.863 517.385 281.581 584.511C278.299 651.637 226.136 711.725 166.579 734.828C140.605 744.913 117.15 751.686 96.9946 764.179C76.8354 776.772 59.5806 800.575 67.1604 826.66" stroke="#5985F4" stroke-miterlimit="10"/>
<path d="M-345.7 -81.4499C-293.328 -88.1972 -238.56 -75.0469 -194.895 -45.0798C-151.226 -15.2127 -118.747 31.0681 -106.468 82.6359C-96.7142 123.607 -100.53 166.299 -102.205 207.866C-103.937 251.032 -102.1 292.323 -89.8628 330.981C-77.6223 369.539 -51.4947 405.888 -11.7016 423.711C46.6101 449.795 117.22 425.383 178.981 441.683C243.815 458.793 291.015 524.507 288.818 592.072C286.621 659.637 234.515 720.928 172.455 741.24C146.235 749.816 121.077 753.826 98.772 764.842C76.4674 775.858 56.4321 799.062 61.9884 825.776" stroke="#5482F3" stroke-miterlimit="10"/>
<path d="M-328.779 -84.552C-276.842 -90.314 -222.898 -76.4926 -180.244 -46.2612C-137.589 -16.0297 -106.305 30.1085 -94.6075 81.1554C-85.0788 122.819 -88.9234 166.311 -91.7295 208.738C-94.564 251.964 -95.7782 294.648 -85.2112 335.248C-74.6441 375.849 -49.7116 414.857 -10.4501 433.561C47.9014 461.348 118.964 435.451 181.767 450.587C247.543 466.53 297.163 531.73 296.054 599.633C294.946 667.537 242.68 730.523 178.221 747.949C151.65 755.111 124.789 756.359 100.439 765.802C76.0891 775.244 53.1697 797.946 56.7095 825.089" stroke="#4E7FF3" stroke-miterlimit="10"/>
<path d="M-311.955 -87.7574C-260.55 -92.6378 -207.437 -77.9453 -165.689 -47.5459C-123.944 -17.0465 -93.9594 29.0456 -82.8404 79.4716C-73.5399 121.928 -77.4057 166.019 -81.443 209.303C-85.4803 252.587 -89.5459 296.67 -80.7487 339.209C-71.9515 381.748 -48.2176 423.516 -9.38774 443.105C48.9998 472.694 120.523 445.112 184.464 459.188C251.189 473.763 303.221 538.649 303.101 606.888C302.982 675.126 250.655 739.812 183.905 754.154C156.881 759.999 128.523 758.293 102.028 766.158C75.5321 774.024 49.8287 796.226 51.352 823.798" stroke="#497CF2" stroke-miterlimit="10"/>
</g>
</svg>
