<svg width="524" height="657" viewBox="0 0 524 657" fill="none" xmlns="http://www.w3.org/2000/svg">
<g opacity="0.2">
<path d="M148.364 765.043C145.729 732.011 145.534 698.111 154.708 666.072C163.899 634.114 183.627 604.067 211.933 589.685C245.743 572.518 288.044 578.779 317.998 554.632C337.38 538.996 347.387 513.903 358.089 490.721C368.822 467.482 382.824 443.384 405.416 434.157C445.923 417.622 493.039 456.854 531.984 436.263C557.666 422.65 567.222 389.577 583.185 364.06C603.399 331.793 637.319 309.576 673.082 305.217C708.845 300.858 745.73 314.479 770.857 341.222" stroke="#1C2226" stroke-miterlimit="10"/>
<path d="M146.094 759.872C143.629 727.079 143.802 693.378 153.208 661.683C158.854 642.551 168.31 624.094 181.077 609.328C189.404 599.677 199.194 591.62 210.219 585.911C243.722 568.65 285.514 573.978 315.532 550.816C326.197 542.575 334.229 531.816 341.123 519.855C346.961 509.732 351.984 498.802 357.1 488.142C364.247 473.179 372.605 457.632 383.506 445.871C389.538 439.356 396.326 433.98 404.086 430.444C419.33 423.443 435.469 424.371 451.843 426.959C475.451 430.617 499.698 437.614 522.141 429.765C524.549 428.953 526.911 427.896 529.287 426.701C555.201 413.432 565.468 382.35 581.529 358.857C597.314 335.871 620.884 318.999 647.502 310.929C655.204 308.603 663.138 307.059 671.212 306.248C685.748 304.849 700.537 306.068 714.687 309.569C735.766 314.704 755.4 324.823 770.714 339.173" stroke="#23292E" stroke-miterlimit="10"/>
<path d="M143.748 754.733C141.528 722.145 142.04 688.701 151.615 657.244C157.37 638.243 166.826 620.006 179.532 605.353C187.828 595.758 197.496 587.707 208.474 581.973C241.624 564.593 282.892 569.127 312.958 546.867C323.746 538.84 332.087 528.612 339.289 516.963C345.42 507.072 350.704 496.21 355.942 485.543C363.335 470.568 371.754 454.908 382.47 442.827C388.395 436.181 394.982 430.624 402.634 426.738C417.477 419.154 433.168 419.037 449.186 420.63C472.269 422.836 496.45 428.191 519.199 420.216C521.638 419.347 524.015 418.371 526.392 417.177C552.521 404.171 563.439 375.193 579.689 353.773C595.572 332.811 618.794 318.012 645.293 311.265C652.98 309.296 660.96 307.997 669.081 307.43C683.726 306.381 698.73 307.644 713.156 310.856C734.618 315.615 754.724 324.53 770.341 337.219" stroke="#2A2F37" stroke-miterlimit="10"/>
<path d="M141.447 749.619C139.397 717.269 140.277 684.024 150.069 652.83C155.946 634.042 165.357 615.999 178.001 601.459C186.237 591.977 195.828 583.958 206.714 578.174C239.587 560.645 280.361 564.327 310.43 542.944C321.357 535.211 329.991 525.433 337.485 514.017C343.908 504.356 349.377 493.595 354.861 482.915C362.499 467.926 371.01 452.097 381.51 439.753C387.358 432.92 393.822 427.15 401.212 422.976C415.684 414.754 430.82 413.679 446.559 414.245C469.193 414.966 493.216 418.63 516.287 410.611C518.726 409.742 521.15 408.792 523.573 407.622C549.964 394.904 561.562 367.973 577.879 348.633C593.89 329.638 616.703 317.027 643.19 311.514C650.863 309.902 658.906 308.928 667.057 308.524C681.857 307.851 697.03 309.132 711.701 312.112C733.576 316.438 754.124 324.206 769.998 335.209" stroke="#31363F" stroke-miterlimit="10"/>
<path d="M139.144 744.504C137.341 712.361 138.56 679.372 148.49 648.472C154.445 629.872 163.887 611.992 176.47 597.564C184.675 588.139 194.189 580.151 204.907 574.349C237.503 556.669 277.753 559.557 307.87 539.076C318.92 531.556 327.817 522.285 335.665 511.206C342.334 501.752 348.11 491.084 353.794 480.366C361.677 465.365 370.203 449.398 380.595 436.703C386.289 429.713 392.676 423.756 399.834 419.237C413.937 410.377 428.61 408.395 443.932 407.858C466.039 407.128 489.997 409.15 513.405 400.949C515.891 400.105 518.345 399.098 520.737 397.984C547.313 385.586 559.623 360.646 576.083 343.354C592.191 326.383 614.627 315.903 641.071 311.68C648.775 310.45 656.788 309.752 665.017 309.536C679.925 309.214 695.359 310.563 710.259 313.229C732.548 317.122 753.508 323.799 769.715 333.085" stroke="#383C47" stroke-miterlimit="10"/>
<path d="M136.798 739.365C135.194 707.402 136.752 674.67 146.898 644.033C152.93 625.62 162.418 607.985 174.925 593.589C183.1 584.219 192.537 576.264 203.131 570.467C235.42 552.695 275.207 554.675 305.296 535.127C316.516 527.845 325.675 519.082 333.815 508.234C340.777 499.011 346.814 488.411 352.62 477.687C360.719 462.729 369.367 446.536 379.544 433.579C385.16 426.401 391.347 420.262 398.29 415.481C412.022 405.982 426.216 403.011 441.183 401.479C462.811 399.321 486.687 399.621 510.372 391.35C512.887 390.449 515.357 389.524 517.795 388.435C544.587 376.299 557.624 353.432 574.151 338.22C590.433 323.241 612.414 314.923 638.799 311.91C646.489 311.037 654.564 310.665 662.825 310.612C677.841 310.64 693.49 312.033 708.589 314.442C731.215 317.933 752.694 323.431 769.204 331.056" stroke="#3F4350" stroke-miterlimit="10"/>
<path d="M134.497 734.249C133.063 702.525 135.035 670.017 145.351 639.618C151.46 621.393 160.98 603.92 173.395 589.694C181.508 580.437 190.869 572.513 201.371 566.667C233.383 548.744 272.646 549.93 302.737 531.259C314.127 524.215 323.548 515.958 331.98 505.342C339.188 496.325 345.502 485.875 351.508 475.113C359.853 460.142 368.562 443.836 378.599 430.585C384.108 423.276 390.171 416.924 396.883 411.799C410.214 401.718 423.961 397.701 438.571 395.174C459.704 391.507 483.484 390.222 507.476 381.825C509.991 380.924 512.491 379.942 514.976 378.879C542.029 367.031 555.747 346.21 572.418 333.047C588.798 320.091 610.477 313.873 636.743 312.182C644.418 311.667 652.54 311.539 660.847 311.73C676.018 312.134 691.836 313.545 707.211 315.665C730.25 318.723 752.171 323.074 768.984 329.038" stroke="#464958" stroke-miterlimit="10"/>
<path d="M132.179 729.055C130.992 697.537 133.303 665.285 143.757 635.18C149.99 617.168 159.464 599.89 171.848 585.72C179.931 576.52 189.215 568.627 199.548 562.762C231.207 544.721 270.069 545.106 300.132 527.369C311.691 520.562 321.328 512.787 330.114 502.508C337.615 493.723 344.144 483.317 350.319 472.573C358.909 457.589 367.663 441.089 377.531 427.6C382.962 420.103 388.857 413.513 395.399 408.15C408.36 397.431 421.551 392.457 435.883 388.903C456.536 383.808 480.204 380.856 504.533 372.277C507.095 371.402 509.595 370.42 512.079 369.356C539.348 357.771 553.793 339.023 570.531 327.94C587.085 316.976 608.308 312.92 634.562 312.463C642.27 312.33 650.362 312.478 658.792 312.881C674.071 313.636 690.12 315.172 705.724 316.979C729.146 319.66 751.586 322.832 768.656 327.11" stroke="#4D5060" stroke-miterlimit="10"/>
<path d="M129.879 723.941C128.891 692.604 131.541 660.608 142.211 630.766C148.551 612.886 158.026 595.826 170.319 581.826C178.325 572.657 187.548 564.877 197.819 558.906C229.201 540.715 267.585 540.33 297.604 523.445C309.287 516.851 319.263 509.552 328.311 499.561C336.058 490.982 342.894 480.669 349.268 469.887C358.104 454.89 366.92 438.277 376.633 424.413C381.957 416.784 387.727 409.982 394.038 404.275C406.629 392.917 419.342 386.954 433.318 382.404C453.476 375.8 477.078 371.208 501.683 362.559C504.245 361.684 506.791 360.726 509.322 359.688C536.822 348.447 552.055 331.658 568.783 322.687C585.541 313.658 606.28 311.821 632.475 312.574C640.168 312.798 648.322 313.271 656.784 313.838C672.171 314.943 688.435 316.522 704.315 318.04C728.15 320.288 751.033 322.313 768.405 324.931" stroke="#545669" stroke-miterlimit="10"/>
<path d="M127.578 718.826C126.806 687.752 129.855 655.9 140.664 626.352C147.081 608.659 156.587 591.763 168.819 577.875C176.764 568.819 185.895 560.989 196.089 555.049C227.195 536.709 265.054 535.529 295.122 519.546C306.974 513.19 317.212 506.398 326.599 496.663C334.638 488.315 341.705 478.127 348.279 467.307C357.36 452.297 366.237 435.571 375.765 421.388C381.011 413.572 386.612 406.531 392.677 400.618C404.898 388.622 417.132 381.67 430.752 376.125C450.43 368.093 473.921 361.834 498.833 353.06C501.425 352.128 504.017 351.196 506.518 350.214C534.233 339.235 550.24 324.544 567.019 317.571C583.997 310.56 604.281 310.885 630.388 312.903C638.066 313.484 646.267 314.202 654.775 315.013C670.271 316.469 686.75 318.092 702.875 319.377C727.124 321.192 750.448 322.07 768.123 323.026" stroke="#5B5D71" stroke-miterlimit="10"/>
<path d="M125.23 713.687C124.658 682.794 128.046 651.198 139.04 621.969C145.581 604.489 155.088 587.812 167.242 573.956C175.157 564.956 184.211 557.158 194.237 551.2C225.035 532.766 262.416 530.816 292.47 515.629C304.461 509.567 314.993 503.226 324.641 493.778C332.972 485.662 340.254 475.517 346.997 464.716C356.324 449.693 365.293 432.798 374.606 418.351C379.744 410.404 385.175 403.126 391.055 396.893C402.906 384.259 414.631 376.374 427.926 369.777C447.109 360.237 470.533 352.336 495.706 343.411C498.344 342.504 500.937 341.572 503.514 340.558C531.491 329.867 548.255 317.193 565.071 312.356C582.223 307.336 602.051 309.824 628.146 313.077C635.856 314.04 644.073 315.058 652.613 316.032C668.263 317.863 684.957 319.53 701.312 320.501C725.943 321.94 749.741 321.613 767.718 320.909" stroke="#626379" stroke-miterlimit="10"/>
<path d="M122.93 708.572C122.604 677.886 126.33 646.546 137.494 617.555C144.112 600.263 153.65 583.749 165.713 570.062C173.597 561.119 182.544 553.408 192.477 547.4C222.998 528.817 259.948 526.122 289.912 511.762C302.073 505.938 312.867 500.104 322.853 490.912C331.431 483.002 339.02 472.951 345.932 462.168C355.474 447.189 364.488 430.099 373.662 415.359C378.723 407.223 384.001 399.789 389.649 393.212C401.13 379.94 412.376 371.066 425.315 363.473C444.049 352.449 467.285 342.913 492.811 333.887C495.449 332.98 498.072 331.992 500.664 331.059C528.858 320.631 546.441 310.079 563.262 307.215C580.65 304.295 600.008 308.863 625.968 313.357C633.663 314.677 641.896 315.996 650.513 317.157C666.272 319.339 683.181 321.05 699.78 321.789C724.825 322.794 749.065 321.321 767.346 318.956" stroke="#696A82" stroke-miterlimit="10"/>
<path d="M120.583 703.433C120.427 672.984 124.522 641.845 135.901 613.116C142.597 596.012 152.135 579.717 164.168 566.086C172.021 557.2 180.891 549.521 190.702 543.519C220.87 524.817 257.418 521.321 287.384 507.839C299.714 502.252 310.771 496.925 321.05 487.965C329.92 480.286 337.74 470.36 344.835 459.457C354.623 444.465 363.729 427.206 372.717 412.146C377.701 403.823 382.809 396.151 388.242 389.312C399.383 375.344 410.121 365.538 422.704 356.95C440.942 344.416 464.113 333.239 489.915 324.144C492.584 323.18 495.222 322.273 497.861 321.366C526.239 311.257 544.642 302.827 561.467 301.937C579.076 301.033 597.933 307.739 623.88 313.467C631.608 315.169 639.888 316.732 648.505 318.113C664.372 320.646 681.496 322.4 698.371 322.85C723.829 323.423 748.512 320.801 767.095 316.776" stroke="#70708A" stroke-miterlimit="10"/>
<path d="M118.312 698.261C118.402 668.019 122.835 637.136 134.353 608.701C141.172 591.81 150.696 575.653 162.637 562.191C170.429 553.418 179.222 545.77 188.894 539.694C218.785 520.842 254.825 516.633 284.778 503.946C297.324 498.622 308.55 493.752 319.183 485.129C328.346 477.682 336.427 467.824 343.692 456.94C353.725 441.935 362.892 424.563 371.695 409.184C376.571 400.729 381.556 392.844 386.773 385.742C397.498 371.112 407.803 360.341 420.03 350.758C437.789 336.797 460.848 323.953 486.987 314.676C489.702 313.737 492.341 312.83 494.979 311.923C523.619 302.101 542.795 295.769 559.595 296.909C577.44 298.103 595.826 306.89 621.715 313.827C629.428 315.887 637.724 317.751 646.419 319.32C662.44 322.228 679.78 324.025 696.807 324.193C722.649 324.389 747.804 320.564 766.643 314.852" stroke="#777792" stroke-miterlimit="10"/>
<path d="M116.011 693.148C116.301 663.086 121.119 632.484 132.806 604.288C139.733 587.528 149.303 571.615 161.137 558.241C168.899 549.524 177.615 541.908 187.195 535.782C216.779 516.836 252.387 511.883 282.281 499.966C294.965 494.937 306.484 490.517 317.41 482.126C326.818 474.884 335.161 465.095 342.64 454.255C352.919 439.236 362.132 421.67 370.766 406.054C375.564 397.411 380.38 389.288 385.381 381.924C395.736 366.655 405.563 354.895 417.388 344.291C434.652 328.821 457.614 314.393 484.06 304.989C486.775 304.051 489.49 303.112 492.144 302.286C521 292.728 540.964 288.574 557.846 291.656C575.88 294.924 593.796 305.792 619.597 313.995C627.295 316.411 635.654 318.601 644.379 320.333C660.509 323.591 678.063 325.432 695.367 325.312C721.622 325.074 747.219 320.102 766.361 312.729" stroke="#7E7E9B" stroke-miterlimit="10"/>
<path d="M113.664 688.008C114.169 658.21 119.31 627.782 131.213 599.848C138.218 583.276 147.788 567.583 159.637 554.291C167.369 545.63 176.008 538.046 185.466 531.925C214.773 512.83 249.949 507.132 279.799 496.068C292.653 491.276 304.465 487.307 315.652 479.203C325.353 472.193 333.926 462.529 341.559 451.625C352.083 436.594 361.357 418.915 369.806 402.979C374.451 394.18 379.143 385.845 383.959 378.161C393.944 362.254 403.261 349.562 414.761 337.905C431.53 320.926 454.426 304.857 481.148 295.384C483.894 294.389 486.625 293.532 489.309 292.649C518.396 283.435 539.134 281.379 556.021 286.434C574.26 291.857 591.736 304.749 617.478 314.162C625.209 316.96 633.537 319.426 642.386 321.37C658.671 325.005 676.394 326.863 693.942 326.511C720.61 325.841 746.65 319.721 766.126 310.631" stroke="#8584A3" stroke-miterlimit="10"/>
<path d="M111.363 682.894C112.069 653.277 117.595 623.131 129.667 595.434C136.749 579.05 146.351 563.519 158.108 550.397C165.778 541.849 174.341 534.296 183.66 528.101C212.66 508.912 247.404 502.469 277.195 492.176C290.188 487.678 302.293 484.159 313.788 476.369C323.781 469.59 332.615 459.994 340.417 449.109C351.187 434.065 360.553 416.216 368.863 399.986C373.43 391 377.922 382.483 382.553 374.48C392.122 357.909 401.007 344.253 412.151 331.601C428.47 313.138 451.225 295.459 478.284 285.804C481.03 284.809 483.791 283.895 486.491 283.094C515.794 274.142 537.243 274.296 554.243 281.238C572.641 288.79 589.646 303.764 615.377 314.41C623.093 317.566 631.483 320.357 640.363 322.464C656.756 326.449 674.71 328.433 692.488 327.767C719.539 326.72 746.051 319.396 765.83 308.645" stroke="#8C8BAC" stroke-miterlimit="10"/>
<path d="M109.062 677.779C110.014 648.369 115.832 618.454 128.09 591.077C135.295 574.905 144.851 559.569 156.578 546.503C164.171 537.986 172.658 530.465 181.9 524.301C210.577 504.938 244.905 497.831 274.682 488.334C287.891 484.099 300.212 481.062 311.999 473.503C322.285 466.955 331.334 457.402 339.382 446.504C350.367 431.504 359.824 413.486 367.949 396.937C372.408 387.819 376.946 379.108 381.146 370.798C390.022 353.415 398.751 338.944 409.54 325.297C425.333 305.382 448.053 286.004 475.388 276.28C478.18 275.309 480.941 274.396 483.687 273.62C513.252 264.956 535.444 267.264 552.449 276.179C571.006 285.861 587.617 302.884 613.243 314.715C620.914 318.284 629.351 321.319 638.309 323.614C654.81 327.95 672.979 329.977 691.033 329.023C718.497 327.543 745.452 319.071 765.533 306.66" stroke="#9391B4" stroke-miterlimit="10"/>
<path d="M106.715 672.64C107.837 643.467 114.07 613.777 126.497 586.638C133.779 570.654 143.412 555.506 155.002 542.584C162.564 534.124 170.974 526.634 180.047 520.452C208.447 500.939 242.282 493.2 272.031 484.417C285.378 480.476 297.993 477.89 310.118 470.587C320.65 464.245 329.976 454.843 338.177 443.882C349.408 428.868 358.91 410.656 366.866 393.869C371.248 384.563 375.447 375.596 379.647 367.067C388.429 349.195 396.357 333.561 406.836 318.943C422.134 297.519 444.757 276.557 472.399 266.706C475.222 265.679 477.999 264.847 480.745 264.071C510.525 255.67 533.429 260.188 550.562 271.07C569.279 282.882 585.45 301.93 611.064 314.995C618.766 318.946 627.25 322.226 636.208 324.74C652.864 329.452 671.202 331.497 689.501 330.31C717.332 328.372 744.745 318.835 765.159 304.706" stroke="#9A98BC" stroke-miterlimit="10"/>
<path d="M104.443 667.469C105.811 638.502 112.336 609.043 124.979 582.167C132.338 566.371 142.003 551.385 153.531 538.576C161.033 530.229 169.366 522.771 178.347 516.539C206.439 496.932 239.843 488.449 269.532 480.436C283.064 476.815 295.925 474.654 308.313 467.639C319.137 461.529 328.724 452.194 337.094 441.252C348.57 426.225 358.134 407.9 365.905 390.794C370.179 381.357 374.239 372.095 378.223 363.304C386.589 344.768 394.084 328.17 404.208 312.557C419.057 289.648 441.491 267.052 469.517 257.043C472.339 256.017 475.193 255.153 477.985 254.402C507.95 246.32 531.597 252.992 548.842 265.76C567.688 279.758 583.465 300.855 609.02 315.13C616.709 319.438 625.209 323.018 634.244 325.721C651.008 330.783 669.607 332.897 688.135 331.396C716.35 329.081 744.235 318.34 764.953 302.551" stroke="#A19EC5" stroke-miterlimit="10"/>
<path d="M102.097 662.33C103.664 633.545 110.574 604.367 123.356 577.785C130.869 562.145 140.458 547.41 151.955 534.658C159.427 526.367 167.683 518.94 176.572 512.658C204.388 492.902 237.298 483.787 267.004 476.513C280.676 473.186 293.83 471.476 306.556 464.717C317.672 458.838 327.52 449.572 336.013 438.623C347.689 423.559 357.39 405.089 364.945 387.72C369.143 378.095 373.002 368.653 376.802 359.542C384.797 340.368 391.784 322.837 401.582 306.172C415.905 281.811 438.304 257.516 466.606 247.439C469.475 246.437 472.328 245.574 475.121 244.823C505.347 237.028 529.66 245.886 546.987 260.595C565.945 276.699 581.329 299.845 606.826 315.329C614.546 320.019 623.016 323.875 632.128 326.765C649.001 332.178 667.815 334.336 686.589 332.603C715.217 329.855 743.544 317.966 764.564 300.516" stroke="#A8A5CD" stroke-miterlimit="10"/>
<path d="M99.7951 657.215C101.532 628.668 108.857 599.715 121.809 573.37C129.399 557.918 139.019 543.346 150.425 530.763C157.865 522.529 166.014 515.19 174.765 508.833C202.227 488.958 234.752 479.123 264.399 472.621C278.255 469.612 291.656 468.328 304.674 461.8C316.083 456.153 326.116 446.986 334.885 435.968C346.806 420.891 356.523 402.283 363.969 384.564C368.089 374.751 371.749 365.127 375.333 355.754C382.912 335.916 389.42 317.397 398.908 299.761C412.69 273.866 435.039 248.011 463.648 237.808C466.547 236.75 469.37 235.943 472.255 235.242C502.697 227.71 527.722 238.778 545.161 255.373C564.279 273.606 579.268 298.802 604.677 315.551C612.382 320.599 620.914 324.781 630.058 327.834C647.085 333.622 666.068 335.798 685.117 333.776C714.159 330.595 742.928 317.56 764.251 298.448" stroke="#AFABD5" stroke-miterlimit="10"/>
<path d="M97.4946 652.102C99.4781 623.76 107.095 595.039 120.262 568.957C127.93 553.693 137.597 539.365 148.926 526.813C156.305 518.692 164.408 511.328 173.036 504.977C200.221 484.953 232.253 474.486 261.871 468.698C275.897 465.927 289.56 465.15 302.886 458.935C314.587 453.518 324.881 444.421 333.819 433.421C345.986 418.33 355.795 399.554 363.025 381.571C367.038 371.627 370.558 361.709 373.927 352.073C381.089 331.572 387.165 312.089 396.298 293.457C409.584 266.053 431.868 238.557 460.783 228.228C463.682 227.17 466.582 226.331 469.436 225.687C500.14 218.443 525.862 231.639 543.398 250.258C562.598 270.653 577.194 297.898 602.621 315.825C610.312 321.23 618.891 325.656 628.081 328.953C645.216 335.092 664.461 337.337 683.662 335.033C713.087 331.475 742.329 317.236 763.955 296.463" stroke="#B6B2DE" stroke-miterlimit="10"/>
<path d="M95.1466 646.962C97.2996 618.858 105.332 590.361 118.638 564.574C126.383 549.498 136.081 535.333 147.318 522.95C154.667 514.886 162.693 507.553 171.198 501.209C198.076 481.091 229.646 469.936 259.281 464.887C273.462 462.492 287.402 462.084 301.02 456.1C312.968 450.89 323.538 441.942 332.63 430.879C345.012 415.832 354.912 396.886 361.957 378.585C365.892 368.453 369.213 358.353 372.442 348.423C379.189 327.259 384.801 306.867 393.609 287.184C406.416 258.353 428.587 229.19 457.809 218.735C460.755 217.702 463.654 216.863 466.585 216.187C497.475 209.263 523.939 224.613 541.557 245.174C560.916 267.699 575.041 297.025 600.44 316.105C608.132 321.948 616.758 326.618 626.026 330.103C643.27 336.593 662.729 338.881 682.206 336.288C712.044 332.297 741.729 316.911 763.611 294.453" stroke="#BDB8E6" stroke-miterlimit="10"/>
<path d="M92.8469 641.848C95.2461 613.951 103.571 585.685 117.093 560.161C124.961 545.297 134.643 531.27 145.82 519C153.138 510.992 161.011 503.722 169.424 497.329C196.025 477.061 227.148 465.299 256.708 460.939C271.027 458.838 285.261 458.881 299.141 453.184C311.381 448.206 322.166 439.301 331.473 428.282C344.101 413.222 354.046 394.082 360.922 375.542C364.749 365.279 367.947 354.967 370.945 344.692C377.321 322.89 382.455 301.51 390.861 280.806C403.172 250.465 425.248 219.718 454.776 209.137C457.722 208.104 460.698 207.234 463.598 206.614C494.749 199.977 521.833 217.488 539.61 239.959C559.082 264.589 572.86 295.989 598.17 316.335C605.848 322.536 614.489 327.507 623.834 331.18C641.233 338.045 660.861 340.351 680.583 337.526C710.834 333.102 740.962 316.568 763.147 292.449" stroke="#C4BFEE" stroke-miterlimit="10"/>
<path d="M90.5292 636.651C93.1285 608.935 101.838 580.951 115.529 555.664C123.475 540.988 133.158 527.18 144.304 514.967C151.545 506.99 159.387 499.777 167.677 493.39C193.971 473.028 224.601 460.635 254.209 456.958C268.714 455.176 283.148 455.619 297.413 450.204C309.944 445.457 320.991 436.621 330.497 425.563C343.371 410.49 353.377 391.237 360.145 372.347C363.895 361.896 366.892 351.402 369.675 340.865C375.558 318.431 380.336 296.055 388.386 274.356C400.249 242.531 422.212 210.118 452.048 199.411C455.023 198.321 458.015 197.533 460.916 196.913C492.282 190.539 520.078 210.26 537.937 234.673C557.445 261.439 570.875 294.914 596.204 316.438C603.867 322.996 612.602 328.236 621.947 332.128C639.454 339.344 659.297 341.694 679.295 338.58C709.929 333.779 740.529 316.042 763.017 290.262" stroke="#CBC5F7" stroke-miterlimit="10"/>
<path d="M88.228 631.538C92.7056 588.124 112.673 543.973 142.773 511.074C172.873 478.175 212.784 457.012 251.619 453.148C266.309 451.686 280.99 452.554 295.547 447.371C325.721 436.701 347.665 402.671 359.078 369.362C370.46 336.11 374.285 301.393 385.652 268.06C396.989 234.783 418.887 200.727 449.029 189.895C484.172 177.317 516.399 200.751 536.051 229.566C555.718 258.461 568.708 293.961 593.947 316.75C615.986 336.639 646.639 345.133 677.687 339.9C708.734 334.666 739.776 315.781 762.567 288.34" stroke="#D2CCFF" stroke-miterlimit="10"/>
<path d="M91.5801 621.163C96.3506 578.2 116.412 534.756 146.391 502.522C176.37 470.287 215.883 449.419 254.274 446.045C269.24 444.732 284.215 446.271 298.911 441.6C328.735 432.128 350.544 399.558 362.361 367.708C374.146 335.915 378.772 302.362 390.602 269.717C402.553 236.627 424.035 202.128 453.975 190.456C488.748 177.02 521.509 198.918 541.666 227.35C561.823 255.781 574.645 291.92 598.719 315.1C619.546 335.135 648.832 343.619 678.515 339.253C708.198 334.887 738.201 317.482 760.61 291.295" stroke="#CDC9FE" stroke-miterlimit="10"/>
<path d="M95.0069 610.755C100.086 568.323 120.226 525.507 150.068 493.855C179.91 462.203 219.086 441.736 257.003 438.909C272.292 437.771 287.437 439.985 302.273 435.829C331.67 427.585 353.422 396.443 365.611 366.109C377.876 335.744 383.257 303.33 395.503 271.348C408.115 238.469 429.12 203.42 458.905 190.934C493.291 176.559 526.616 197.084 547.248 224.97C567.879 252.855 580.581 289.658 603.412 313.26C622.949 333.473 650.992 341.941 679.311 338.442C707.66 334.886 736.592 319.019 758.621 294.086" stroke="#C7C6FE" stroke-miterlimit="10"/>
<path d="M98.3572 600.38C103.775 558.424 124.009 516.315 153.669 485.222C183.328 454.128 222.183 434.144 259.655 431.806C275.268 430.843 290.583 433.734 305.636 430.059C334.636 422.987 356.223 393.362 368.892 364.456C381.56 335.549 387.697 304.274 400.435 272.924C413.677 240.314 434.235 204.658 463.834 191.414C497.88 176.125 531.724 195.252 552.83 222.591C573.936 249.931 586.44 287.43 608.121 311.504C626.383 331.757 653.091 340.378 680.122 337.714C707.107 335.026 734.952 320.614 756.647 296.959" stroke="#C2C3FD" stroke-miterlimit="10"/>
<path d="M101.739 589.949C107.419 548.5 127.809 506.986 157.347 476.557C186.885 446.127 225.403 426.545 262.386 424.671C278.321 423.883 293.761 427.425 309.076 424.258C337.634 418.334 359.179 390.219 372.296 362.796C385.414 335.374 392.306 305.238 405.492 274.494C419.379 242.014 439.491 205.97 468.918 191.831C502.623 175.628 536.94 193.332 558.566 220.15C580.163 247.025 592.438 285.057 612.968 309.604C629.972 329.977 655.406 338.638 681.073 336.842C706.74 335.046 733.498 322.089 754.859 299.714" stroke="#BDC0FD" stroke-miterlimit="10"/>
<path d="M105.137 579.599C111.156 538.625 131.593 497.794 160.964 468.004C190.335 438.214 228.516 419.033 265.009 417.624C281.267 417.011 296.908 421.173 312.363 418.519C340.478 413.742 361.981 387.137 375.502 361.174C389.022 335.21 396.792 306.206 410.348 276.102C424.896 243.833 444.546 207.32 473.771 192.342C507.106 175.281 542.002 191.474 564.042 217.859C586.113 244.188 598.221 282.86 617.571 307.935C633.346 328.373 657.429 337.106 681.732 336.177C706.034 335.248 731.753 323.772 752.702 302.706" stroke="#B8BDFC" stroke-miterlimit="10"/>
<path d="M108.517 569.167C114.844 528.726 135.36 488.521 164.64 459.339C193.921 430.157 231.704 411.491 267.737 410.489C284.318 410.051 300.084 414.864 315.77 412.774C343.428 409.063 364.828 384.081 378.828 359.545C392.798 335.065 401.323 307.2 415.326 277.702C430.581 245.671 449.676 208.639 478.777 192.79C511.771 174.815 547.185 189.61 569.746 215.474C592.307 241.339 604.217 280.487 622.386 306.09C636.918 326.512 659.68 335.479 682.649 335.361C705.618 335.242 730.22 325.278 750.835 305.491" stroke="#B2BAFC" stroke-miterlimit="10"/>
<path d="M111.867 558.792C118.534 518.826 139.097 479.304 168.241 450.704C197.385 422.105 234.816 403.979 270.39 403.386C287.294 403.122 303.215 408.53 319.086 406.978C346.241 404.308 367.66 380.942 382.032 357.922C396.436 334.845 405.809 308.169 420.227 279.334C436.143 247.515 454.808 209.957 483.676 193.325C516.3 174.493 552.216 187.808 575.298 213.152C598.38 238.495 610.014 278.151 627.094 304.333C640.383 324.739 661.81 333.858 683.461 334.632C705.066 335.381 728.597 326.954 748.861 308.364" stroke="#ADB6FB" stroke-miterlimit="10"/>
<path d="M115.296 548.385C122.225 508.926 142.913 470.055 171.889 442.095C200.866 414.135 237.976 396.492 273.09 396.307C290.317 396.218 306.316 402.253 322.496 401.232C349.177 399.547 370.585 377.854 385.361 356.293C400.213 334.7 409.127 308.432 425.207 280.935C443.214 250.101 459.986 211.3 488.683 193.773C520.937 174.083 557.402 185.944 580.928 210.798C604.453 235.652 615.966 275.753 631.804 302.576C643.895 322.99 663.987 332.262 684.228 333.878C704.514 335.519 726.913 328.523 746.843 311.212" stroke="#A8B3FB" stroke-miterlimit="10"/>
<path d="M118.646 538.01C125.914 499.026 146.68 460.782 175.536 433.486C204.376 406.11 241.134 389.005 275.743 389.204C293.292 389.29 309.447 395.919 325.813 395.437C352.02 394.737 373.34 374.748 388.642 354.639C403.897 334.506 413.627 309.263 430.139 282.511C448.945 251.964 465.118 212.619 493.613 194.253C525.526 173.649 562.51 184.111 586.51 208.419C610.51 232.727 621.824 273.305 636.497 300.738C647.375 321.079 666.07 330.617 685.023 333.069C703.976 335.521 725.304 330.061 744.854 314.004" stroke="#A3B0FA" stroke-miterlimit="10"/>
<path d="M122.028 527.578C129.635 489.07 150.449 451.509 179.168 424.796C207.887 398.084 244.248 381.494 278.427 382.044C296.269 382.361 312.563 389.504 329.176 389.667C354.864 389.926 376.219 371.635 391.924 352.986C407.628 334.336 419.544 311.007 435.073 284.087C453.124 252.84 470.204 213.913 498.574 194.676C530.116 173.215 567.68 182.166 592.124 205.984C616.568 229.803 627.745 270.744 641.238 298.925C650.933 319.137 668.278 328.966 685.867 332.285C703.455 335.603 723.743 331.625 742.912 316.821" stroke="#9DADFA" stroke-miterlimit="10"/>
<path d="M125.425 517.227C133.34 479.251 154.279 442.341 182.815 416.186C211.351 390.032 247.406 374.007 281.126 374.965C299.291 375.457 315.724 383.113 332.585 383.921C357.83 385.108 379.113 368.603 395.251 351.356C411.359 334.165 424.122 312.025 440.021 285.744C458.779 254.733 475.351 215.313 503.473 195.211C534.691 172.917 572.711 180.364 597.676 203.661C622.641 226.959 633.604 268.295 645.901 297.142C654.459 317.25 670.361 327.32 686.586 331.506C702.811 335.692 722.012 333.168 740.846 319.644" stroke="#98AAF9" stroke-miterlimit="10"/>
<path d="M128.807 506.796C137.015 469.27 158.048 433.068 186.463 407.578C214.878 382.087 250.581 366.602 283.826 367.886C302.283 368.61 318.856 376.78 335.948 378.151C360.689 380.16 381.946 365.465 398.503 349.759C415.06 334.052 428.7 313.044 444.97 287.401C464.512 256.596 480.499 216.713 508.419 195.772C539.266 172.62 577.835 178.613 603.29 201.446C628.745 224.278 639.586 265.84 650.641 295.548C658.079 315.414 672.539 325.944 687.43 330.94C702.321 335.937 720.451 334.951 738.905 322.68" stroke="#93A7F9" stroke-miterlimit="10"/>
<path d="M132.203 496.446C140.72 459.453 161.831 423.877 190.11 398.97C218.388 374.062 253.709 359.172 286.494 360.865C305.32 361.788 321.987 370.447 339.326 372.463C363.608 375.318 384.84 362.435 401.799 348.187C418.79 333.883 433.324 314.089 449.918 289.059C470.167 258.491 485.615 218.17 513.395 196.277C543.871 172.268 582.989 176.806 608.919 199.093C634.848 221.38 645.582 263.249 655.381 293.736C661.712 313.441 674.699 324.268 688.272 330.156C701.844 336.045 718.889 336.515 736.962 325.498" stroke="#8EA4F9" stroke-miterlimit="10"/>
<path d="M135.584 486.014C144.44 449.496 165.629 414.547 193.74 390.279C221.851 366.011 256.867 351.686 289.131 353.68C308.249 354.834 325.116 363.894 342.596 366.643C366.42 370.344 387.595 359.328 405.034 346.508C422.473 333.688 437.886 315.026 454.804 290.61C475.836 260.247 490.7 219.463 518.277 196.732C548.429 171.89 588.035 174.866 614.454 196.689C640.874 218.511 651.562 260.575 660.073 291.897C665.36 311.328 676.859 322.59 689.021 329.322C701.23 336.078 717.187 338.002 734.973 328.289" stroke="#88A1F8" stroke-miterlimit="10"/>
<path d="M138.935 475.637C148.053 439.627 169.367 405.328 197.388 381.668C225.408 358.008 259.965 344.31 291.83 346.6C311.241 347.986 328.232 357.477 346.005 360.896C369.355 365.363 390.473 356.213 408.362 344.877C426.25 333.541 442.541 316.012 459.783 292.209C481.599 262.051 495.924 220.83 523.284 197.178C553.065 171.478 593.22 173.001 620.083 194.333C646.977 215.61 657.666 257.892 664.783 290.139C669.04 309.378 678.989 320.968 689.833 328.592C700.678 336.215 715.595 339.62 733 331.161" stroke="#839EF8" stroke-miterlimit="10"/>
<path d="M142.363 465.232C151.82 429.697 173.182 396.081 201.035 373.061C228.888 350.04 263.139 336.906 294.53 339.523C314.279 341.165 331.424 351.031 349.415 355.152C372.336 360.409 393.398 353.127 411.69 343.25C429.981 333.373 447.242 317.026 464.762 293.811C487.377 263.94 501.102 222.175 528.261 197.684C557.717 171.151 598.374 171.194 625.712 191.981C653.097 212.793 663.817 255.238 669.569 288.352C672.858 307.285 681.165 319.374 690.722 327.833C700.233 336.267 714.033 341.185 731.073 334.06" stroke="#7E9BF7" stroke-miterlimit="10"/>
<path d="M145.713 454.856C155.479 419.852 176.919 386.863 204.636 364.426C232.352 341.988 266.19 329.507 297.182 332.418C317.224 334.291 334.57 344.559 352.731 349.355C375.225 355.403 396.199 350.044 414.894 341.626C433.634 333.233 451.743 318.075 469.617 295.418C492.986 265.808 506.156 223.524 533.144 198.137C562.229 170.747 603.389 169.31 631.294 189.601C659.199 209.892 669.997 252.526 674.231 286.569C676.522 305.254 683.295 317.753 691.441 327.054C699.588 336.355 712.348 342.753 729.007 336.883" stroke="#7898F7" stroke-miterlimit="10"/>
<path d="M149.064 444.481C159.169 409.953 180.657 377.647 208.283 355.817C235.909 333.987 269.365 322.102 299.835 325.315C320.215 327.444 337.7 338.006 356.063 343.642C378.113 350.398 399.001 346.963 418.145 340.029C437.288 333.095 456.367 319.119 474.566 297.075C498.764 267.696 511.304 224.925 538.089 198.698C566.85 170.476 608.544 167.503 636.893 187.304C665.241 207.106 676.27 249.864 678.94 284.812C680.339 303.161 685.425 316.133 692.253 326.326C699.112 336.463 710.755 344.373 727.034 339.756" stroke="#7395F6" stroke-miterlimit="10"/>
<path d="M152.492 434.075C162.89 399.998 184.518 368.424 211.961 347.152C239.374 325.937 272.54 314.697 302.565 318.181C323.238 320.542 340.954 331.447 359.457 337.816C381.11 345.306 401.88 343.851 421.503 338.345C441.127 332.838 461.099 320.076 479.576 298.62C504.573 269.528 516.528 226.294 543.127 199.091C571.563 170.035 613.759 165.583 642.552 184.895C671.376 204.15 682.681 247.058 683.757 282.969C684.28 301.062 687.678 314.507 693.173 325.511C698.667 336.515 709.224 345.88 725.168 342.542" stroke="#6E92F6" stroke-miterlimit="10"/>
<path d="M155.843 423.699C166.58 390.098 188.286 359.15 215.562 338.518C242.885 317.91 275.638 307.323 305.219 311.077C326.199 313.751 344.162 324.863 362.82 332.045C384.107 340.213 404.759 340.738 424.785 336.69C444.812 332.643 465.724 321.12 484.478 300.252C510.321 271.472 521.63 227.669 548.027 199.626C576.138 169.738 618.837 163.806 648.105 182.572C677.372 201.338 689.077 244.39 688.39 281.243C688.037 299.081 689.732 312.917 693.862 324.789C697.993 336.66 707.51 347.506 723.073 345.422" stroke="#698EF5" stroke-miterlimit="10"/>
<path d="M159.224 413.268C170.269 380.198 192.054 349.877 219.209 329.909C246.364 309.941 278.735 299.949 307.918 303.998C329.19 306.903 347.384 318.359 366.182 326.275C387.102 335.119 407.591 337.6 428.066 335.036C448.542 332.473 470.394 322.188 489.411 301.828C516.052 273.334 526.807 229.012 552.987 200.049C580.774 169.328 623.93 161.892 653.718 180.137C683.506 198.382 695.656 241.601 693.16 279.373C691.977 296.981 691.968 311.209 694.735 323.947C697.531 336.629 705.978 349.012 721.161 348.182" stroke="#638BF5" stroke-miterlimit="10"/>
<path d="M162.62 402.916C173.974 370.379 195.837 340.684 222.855 321.299C249.873 301.914 281.847 292.656 310.57 296.894C332.15 300.111 350.621 311.718 369.514 320.56C390.067 330.082 410.438 334.542 431.316 333.438C452.195 332.334 475.017 323.231 494.312 303.46C521.768 275.333 531.907 230.386 557.885 200.584C585.347 169.031 629.006 160.115 659.238 177.87C689.516 195.65 702.158 239.064 697.76 277.703C695.795 295.106 693.96 309.732 695.438 323.306C696.917 336.88 704.2 350.75 719.079 351.142" stroke="#5E88F4" stroke-miterlimit="10"/>
<path d="M166.002 392.486C177.649 360.398 199.606 331.412 226.457 312.666C253.308 293.92 284.945 285.283 313.224 289.791C335.066 293.296 353.829 305.134 372.877 314.79C393.11 325.015 413.286 331.487 434.568 331.841C455.895 332.221 479.658 324.357 499.261 305.118C527.562 277.303 537.071 231.869 562.831 201.146C589.969 168.76 634.161 158.308 664.883 175.599C695.605 192.889 708.878 236.571 702.563 275.997C699.813 293.194 696.229 308.187 696.297 322.603C696.411 337.045 702.654 352.395 717.153 354.041" stroke="#5985F4" stroke-miterlimit="10"/>
<path d="M169.352 382.11C181.307 350.554 203.343 322.194 230.104 304.056C256.818 285.893 288.042 277.909 315.922 282.712C338.073 286.53 357.112 298.517 376.24 309.02C396.105 319.921 416.118 328.348 437.895 330.212C459.625 332.051 484.328 325.426 504.239 306.718C533.401 279.297 542.294 233.237 567.837 201.593C594.65 168.375 639.299 156.418 670.542 173.188C701.785 189.958 715.641 233.882 707.286 274.102C703.753 291.094 698.373 306.429 697.123 321.737C695.874 337.045 701.03 353.851 715.24 356.801" stroke="#5482F3" stroke-miterlimit="10"/>
<path d="M172.781 371.704C185.075 340.624 207.189 312.89 233.782 295.392C260.376 277.893 291.187 270.561 318.653 275.578C341.065 279.684 360.474 291.871 379.68 303.219C399.256 314.766 419.044 325.261 441.254 328.527C463.464 331.794 489.076 326.464 509.25 308.263C539.227 281.21 547.549 234.55 572.845 202.042C599.38 168.016 644.485 154.555 676.202 170.779C707.92 187.002 722.53 231.408 712.119 272.34C707.818 289.207 700.643 304.884 698.059 321.003C695.476 337.122 699.562 355.465 713.391 359.668" stroke="#4E7FF3" stroke-miterlimit="10"/>
<path d="M176.131 361.328C188.687 330.755 210.972 303.698 237.382 286.757C263.839 269.841 294.253 263.243 321.259 268.449C343.979 272.867 363.664 285.204 382.919 297.454C402.174 309.704 421.798 322.154 444.412 326.879C467.025 331.605 493.592 327.595 514.059 309.845C544.897 283.185 552.558 235.874 577.681 202.471C603.846 167.587 649.5 152.672 681.661 168.406C713.823 184.14 729.217 228.97 716.689 270.507C711.635 287.333 702.633 303.188 698.686 320.174C694.738 337.16 697.784 356.984 711.233 362.441" stroke="#497CF2" stroke-miterlimit="10"/>
</g>
</svg>
