<svg width="26" height="26" viewBox="0 0 26 26" fill="none" xmlns="http://www.w3.org/2000/svg">
<path d="M0 1.86247C0 0.834134 0.85477 0 1.90924 0H24.0908C25.1452 0 26 0.834137 26 1.86248V24.1375C26 25.1662 25.1452 26 24.0908 26L1.90924 26C0.85477 26 0 25.1662 0 24.1375V1.86247ZM8.03299 21.7647V10.0242H4.13068V21.7647H8.03299ZM6.08182 8.42128C7.44263 8.42128 8.28963 7.51974 8.28963 6.39308C8.26427 5.24106 7.44264 4.36454 6.10763 4.36454C4.77277 4.36454 3.9 5.24106 3.9 6.39308C3.9 7.51974 4.74681 8.42128 6.05638 8.42128H6.08182ZM14.0585 21.7647V15.2083C14.0585 14.8574 14.0839 14.5069 14.1869 14.2561C14.469 13.555 15.1111 12.8289 16.1891 12.8289C17.6012 12.8289 18.1661 13.9055 18.1661 15.4838V21.7647H22.068V15.0329C22.068 11.4267 20.1428 9.74874 17.5754 9.74874C15.5054 9.74874 14.5772 10.8865 14.0586 11.6865V11.7269H14.0326C14.0411 11.7135 14.0498 11.7 14.0586 11.6865V10.0242H10.1564C10.2076 11.1259 10.1564 21.7647 10.1564 21.7647H14.0585Z" fill="#D1D1D1"/>
</svg>
