<svg width="26" height="26" viewBox="0 0 26 26" fill="none" xmlns="http://www.w3.org/2000/svg">
<path fill-rule="evenodd" clip-rule="evenodd" d="M3.06276 0.830498C4.26869 -0.375438 6.25868 -0.251545 7.30573 1.09466L10.2205 4.84222C10.7554 5.52994 10.9444 6.42539 10.7331 7.27062L9.84379 10.8278C9.7499 11.2034 9.85994 11.6007 10.1337 11.8744L14.1256 15.8663C14.3993 16.1401 14.7966 16.2501 15.1722 16.1562L18.7294 15.2669C19.5746 15.0556 20.4701 15.2446 21.1578 15.7795L24.9053 18.6943C26.2515 19.7413 26.3754 21.7313 25.1695 22.9372L23.4894 24.6174C22.2873 25.8194 20.4894 26.3472 18.8138 25.7581C14.6535 24.2955 10.7484 21.9008 7.4238 18.5762C4.09922 15.2516 1.70454 11.3465 0.241862 7.18616C-0.347234 5.51058 0.180586 3.71267 1.38263 2.51062L3.06276 0.830498Z" fill="#D4D4D4"/>
</svg>
