<svg width="16" height="17" viewBox="0 0 16 17" fill="none" xmlns="http://www.w3.org/2000/svg">
<path d="M16 8.5C16 12.5871 12.935 15.9584 8.97813 16.4408L10.8803 9.34197C10.9222 9.19833 10.9536 9.05024 10.9738 8.89856C11.022 8.54181 11.0046 8.18777 10.9295 7.85043C10.8902 7.6722 10.835 7.49993 10.7655 7.33516C10.6591 7.08248 10.5167 6.84141 10.338 6.61984C10.3053 6.57907 10.2715 6.53911 10.2366 6.50003H15.748C15.9125 7.13926 16 7.80941 16 8.5Z" fill="#CACACA"/>
<path d="M0 8.5C0 12.8939 3.54238 16.4605 7.92708 16.4997L9.35286 11.1786C9.2725 11.2192 9.1907 11.256 9.10773 11.2889C8.95426 11.3499 8.79457 11.3986 8.62987 11.4338C8.30323 11.5042 7.96125 11.5206 7.61654 11.4757C7.36204 11.4433 7.11751 11.3789 6.88706 11.2868C6.74104 11.2286 6.59866 11.1584 6.46143 11.0763C6.2323 10.9396 6.02531 10.7744 5.84398 10.5867L0.633046 5.37574C0.225468 6.33559 0 7.39147 0 8.5Z" fill="#CACACA"/>
<path d="M5.00411 8.33258L1.10762 4.4361C2.49972 2.08018 5.06533 0.5 8 0.5C11.3574 0.5 14.2317 2.56818 15.4185 5.50003H8.06552C7.82449 5.49457 7.58675 5.51847 7.35673 5.56916C7.16868 5.61024 6.98723 5.66896 6.81419 5.7435C6.56596 5.8502 6.3292 5.99196 6.11145 6.1688C5.82758 6.39839 5.58393 6.68088 5.39734 7.00655C5.33609 7.11313 5.28193 7.22267 5.23484 7.33448C5.13128 7.57988 5.05943 7.84193 5.02443 8.1155C5.01496 8.18802 5.00821 8.26042 5.00411 8.33258Z" fill="#CACACA"/>
<path d="M8 10.5C9.10457 10.5 10 9.60457 10 8.5C10 7.39543 9.10457 6.5 8 6.5C6.89543 6.5 6 7.39543 6 8.5C6 9.60457 6.89543 10.5 8 10.5Z" fill="#CACACA"/>
</svg>
