<svg width="26" height="26" viewBox="0 0 26 26" fill="none" xmlns="http://www.w3.org/2000/svg">
<path d="M22.1021 3.78047C19.6745 1.34046 16.4376 0 12.9907 0C5.89307 0 0.11119 5.7819 0.105013 12.8795C0.105013 15.1528 0.698027 17.3642 1.82228 19.3224L0 26L6.83201 24.2086C8.71607 25.234 10.8349 25.7776 12.9907 25.7776H12.9969C20.0945 25.7776 25.8764 19.9957 25.8826 12.8919C25.8764 9.45118 24.5359 6.2143 22.1021 3.78047ZM12.9907 23.5971C11.0634 23.5971 9.17936 23.0782 7.53622 22.1022L7.14705 21.8674L3.09479 22.9299L4.17581 18.9765L3.92254 18.5688C2.8477 16.8639 2.28557 14.8933 2.28557 12.8734C2.28557 6.98028 7.09146 2.17439 12.9969 2.17439C15.8569 2.17439 18.544 3.29247 20.5702 5.31243C22.5901 7.33856 23.702 10.0257 23.702 12.8857C23.6958 18.7973 18.89 23.5971 12.9907 23.5971ZM18.8653 15.579C18.544 15.4184 16.9627 14.6401 16.6662 14.5289C16.3697 14.4239 16.1535 14.3683 15.9434 14.6895C15.7272 15.0107 15.1095 15.7396 14.9242 15.9496C14.7389 16.1658 14.5474 16.1905 14.2262 16.0299C13.9049 15.8693 12.8672 15.5296 11.6379 14.43C10.6804 13.5776 10.038 12.5213 9.8465 12.2C9.66118 11.8788 9.82797 11.7059 9.98858 11.5453C10.1307 11.4032 10.3098 11.1684 10.4704 10.9831C10.631 10.7978 10.6866 10.6619 10.7916 10.4457C10.8966 10.2295 10.8472 10.0442 10.7669 9.88358C10.6866 9.72298 10.0442 8.13542 9.77237 7.49299C9.51293 6.86291 9.24731 6.9494 9.04964 6.94322C8.86432 6.93086 8.64812 6.93086 8.43192 6.93086C8.21571 6.93086 7.86979 7.01117 7.57328 7.33238C7.27677 7.6536 6.44903 8.43193 6.44903 10.0195C6.44903 11.607 7.60417 13.1328 7.76478 13.349C7.92538 13.5652 10.0318 16.8144 13.2625 18.2105C14.0285 18.5441 14.6277 18.7417 15.0971 18.89C15.8693 19.1371 16.5673 19.1 17.1233 19.0197C17.741 18.9271 19.0259 18.2414 19.2977 17.4878C19.5633 16.7341 19.5633 16.0917 19.483 15.9558C19.4027 15.8199 19.1865 15.7396 18.8653 15.579Z" fill="#D4D4D4"/>
</svg>
